<svg width="30" height="30" viewBox="0 0 30 30" fill="none" xmlns="http://www.w3.org/2000/svg">
<g clip-path="url(#clip0_224_296)">
<path d="M16.8605 6.38947C18.6344 6.38947 19.8949 6.39133 20.8512 6.51916C21.786 6.64421 22.3256 6.87949 22.7191 7.27133C23.1126 7.66316 23.3488 8.20042 23.4744 9.13229C23.6028 10.0845 23.6047 11.3388 23.6047 13.1053C23.6047 13.2895 23.6782 13.4662 23.809 13.5965C23.9398 13.7268 24.1173 13.8 24.3023 13.8C24.4874 13.8 24.6648 13.7268 24.7957 13.5965C24.9265 13.4662 25 13.2895 25 13.1053V13.0534C25 11.3508 25 10.0021 24.8577 8.94703C24.7107 7.86139 24.4019 6.98232 23.706 6.28851C23.0093 5.59562 22.1265 5.28808 21.0363 5.14173C19.9758 5 18.6223 5 16.9126 5H16.8605C16.6754 5 16.498 5.0732 16.3671 5.20348C16.2363 5.33377 16.1628 5.51048 16.1628 5.69474C16.1628 5.87899 16.2363 6.0557 16.3671 6.18599C16.498 6.31628 16.6754 6.38947 16.8605 6.38947ZM13.0874 5H13.1395C13.3246 5 13.502 5.0732 13.6329 5.20348C13.7637 5.33377 13.8372 5.51048 13.8372 5.69474C13.8372 5.87899 13.7637 6.0557 13.6329 6.18599C13.502 6.31628 13.3246 6.38947 13.1395 6.38947C11.3656 6.38947 10.106 6.39133 9.14884 6.51916C8.21395 6.64421 7.67442 6.87949 7.28093 7.27133C6.88744 7.66316 6.65116 8.20042 6.52558 9.13229C6.39721 10.0845 6.39535 11.3388 6.39535 13.1053C6.39535 13.2895 6.32184 13.4662 6.191 13.5965C6.06017 13.7268 5.88271 13.8 5.69767 13.8C5.51264 13.8 5.33518 13.7268 5.20434 13.5965C5.0735 13.4662 5 13.2895 5 13.1053V13.0534C5 11.3508 5 10.0021 5.14233 8.94703C5.2893 7.86139 5.59814 6.98232 6.29395 6.28851C6.9907 5.59562 7.87349 5.28808 8.96372 5.14173C10.0242 5 11.3777 5 13.0874 5Z" fill="#333333"/>
<path d="M8.89679 8.89679C8.3999 9.39367 8.3999 10.1942 8.3999 11.7942C8.3999 12.8606 8.3999 13.3942 8.73085 13.7261C9.06273 14.057 9.59733 14.057 10.6628 14.057H11.7942C12.8606 14.057 13.3942 14.057 13.7261 13.7261C14.057 13.3942 14.057 12.8596 14.057 11.7942V10.6628C14.057 9.59639 14.057 9.06273 13.7261 8.73085C13.3942 8.3999 12.8596 8.3999 11.7942 8.3999C10.1942 8.3999 9.39367 8.3999 8.89679 8.89679ZM8.89679 21.103C8.3999 20.6061 8.3999 19.8056 8.3999 18.2056C8.3999 17.1392 8.3999 16.6056 8.73085 16.2737C9.06273 15.9428 9.59733 15.9428 10.6628 15.9428H11.7942C12.8606 15.9428 13.3942 15.9428 13.7261 16.2737C14.057 16.6056 14.057 17.1392 14.057 18.2056V19.337C14.057 20.4034 14.057 20.9371 13.7261 21.268C13.3942 21.5999 12.8596 21.5999 11.7942 21.5999C10.1942 21.5999 9.39367 21.5999 8.89679 21.103ZM15.9428 10.6628C15.9428 9.59639 15.9428 9.06273 16.2737 8.73085C16.6065 8.3999 17.1402 8.3999 18.2056 8.3999C19.8056 8.3999 20.6061 8.3999 21.103 8.89679C21.5999 9.39367 21.5999 10.1942 21.5999 11.7942C21.5999 12.8606 21.5999 13.3942 21.268 13.7261C20.938 14.057 20.4034 14.057 19.337 14.057H18.2056C17.1392 14.057 16.6056 14.057 16.2737 13.7261C15.9428 13.3942 15.9428 12.8596 15.9428 11.7942V10.6628ZM16.2746 21.269C15.9428 20.9371 15.9428 20.4025 15.9428 19.337V18.2056C15.9428 17.1392 15.9428 16.6056 16.2737 16.2737C16.6065 15.9428 17.1402 15.9428 18.2056 15.9428H19.337C20.4034 15.9428 20.9371 15.9428 21.268 16.2737C21.5999 16.6056 21.5999 17.1392 21.5999 18.2056C21.5999 19.8056 21.5999 20.6061 21.103 21.103C20.6061 21.5999 19.8056 21.5999 18.2056 21.5999C17.1392 21.5999 16.6056 21.5999 16.2737 21.268" fill="#333333"/>
<path d="M24.3023 16.2C24.4874 16.2 24.6648 16.2731 24.7957 16.4034C24.9265 16.5337 25 16.7104 25 16.8947V16.9466C25 18.6491 25 19.9978 24.8577 21.0529C24.7107 22.1386 24.4019 23.0176 23.706 23.7114C23.0093 24.4043 22.1265 24.7119 21.0363 24.8582C19.9758 25 18.6223 25 16.9126 25H16.8605C16.6754 25 16.498 24.9268 16.3671 24.7965C16.2363 24.6662 16.1628 24.4895 16.1628 24.3052C16.1628 24.121 16.2363 23.9442 16.3671 23.814C16.498 23.6837 16.6754 23.6105 16.8605 23.6105C18.6344 23.6105 19.8949 23.6086 20.8512 23.4808C21.786 23.3557 22.3256 23.1205 22.7191 22.7286C23.1126 22.3368 23.3488 21.7995 23.4744 20.8677C23.6028 19.9163 23.6047 18.6612 23.6047 16.8947C23.6047 16.7104 23.6782 16.5337 23.809 16.4034C23.9398 16.2731 24.1173 16.2 24.3023 16.2ZM6.39535 16.8947C6.39535 16.7104 6.32184 16.5337 6.191 16.4034C6.06017 16.2731 5.88271 16.2 5.69767 16.2C5.51264 16.2 5.33518 16.2731 5.20434 16.4034C5.0735 16.5337 5 16.7104 5 16.8947V16.9466C5 18.6491 5 19.9978 5.14233 21.0529C5.2893 22.1386 5.59814 23.0176 6.29395 23.7114C6.9907 24.4043 7.87349 24.7119 8.96372 24.8582C10.0242 25 11.3777 25 13.0874 25H13.1395C13.3246 25 13.502 24.9268 13.6329 24.7965C13.7637 24.6662 13.8372 24.4895 13.8372 24.3052C13.8372 24.121 13.7637 23.9442 13.6329 23.814C13.502 23.6837 13.3246 23.6105 13.1395 23.6105C11.3656 23.6105 10.106 23.6086 9.14884 23.4808C8.21395 23.3557 7.67442 23.1205 7.28093 22.7286C6.88744 22.3368 6.65116 21.7995 6.52558 20.8677C6.39721 19.9163 6.39535 18.6612 6.39535 16.8947Z" fill="#333333"/>
</g>
<defs>
<clipPath id="clip0_224_296">
<rect width="20" height="20" fill="white" transform="translate(5 5)"/>
</clipPath>
</defs>
</svg>
