<svg width="30" height="30" viewBox="0 0 30 30" fill="none" xmlns="http://www.w3.org/2000/svg">
<path d="M13.1633 22.225C13.1633 22.2604 13.1675 22.349 13.176 22.4906C13.1845 22.6323 13.1866 22.7496 13.1824 22.8426C13.1781 22.9355 13.1654 23.0396 13.1441 23.1547C13.1229 23.2698 13.0804 23.3561 13.0166 23.4137C12.9528 23.4712 12.8656 23.5 12.7551 23.5H8.67347C7.66156 23.5 6.79634 23.1259 6.07781 22.3777C5.35927 21.6296 5 20.7286 5 19.675V10.325C5 9.27135 5.35927 8.37044 6.07781 7.62227C6.79634 6.87409 7.66156 6.5 8.67347 6.5H12.7551C12.8656 6.5 12.9613 6.54206 13.0421 6.62617C13.1229 6.71029 13.1633 6.8099 13.1633 6.925C13.1633 6.96042 13.1675 7.04896 13.176 7.19063C13.1845 7.33229 13.1866 7.44961 13.1824 7.54258C13.1781 7.63555 13.1654 7.73958 13.1441 7.85469C13.1229 7.96979 13.0804 8.05612 13.0166 8.11367C12.9528 8.17122 12.8656 8.2 12.7551 8.2H8.67347C8.11224 8.2 7.6318 8.40807 7.23214 8.82422C6.83248 9.24036 6.63265 9.74063 6.63265 10.325V19.675C6.63265 20.2594 6.83248 20.7596 7.23214 21.1758C7.6318 21.5919 8.11224 21.8 8.67347 21.8H12.6531L12.7997 21.8133L12.9464 21.8531L13.0485 21.9262L13.1378 22.0457L13.1633 22.225ZM25 15C25 15.2302 24.9192 15.4294 24.7577 15.5977L17.8189 22.8227C17.6573 22.9909 17.466 23.075 17.2449 23.075C17.0238 23.075 16.8325 22.9909 16.6709 22.8227C16.5094 22.6544 16.4286 22.4552 16.4286 22.225V18.4H10.7143C10.4932 18.4 10.3019 18.3159 10.1403 18.1477C9.97874 17.9794 9.89796 17.7802 9.89796 17.55V12.45C9.89796 12.2198 9.97874 12.0206 10.1403 11.8523C10.3019 11.6841 10.4932 11.6 10.7143 11.6H16.4286V7.775C16.4286 7.54479 16.5094 7.34557 16.6709 7.17734C16.8325 7.00911 17.0238 6.925 17.2449 6.925C17.466 6.925 17.6573 7.00911 17.8189 7.17734L24.7577 14.4023C24.9192 14.5706 25 14.7698 25 15Z" fill="#333333"/>
</svg>
