<svg width="30" height="30" viewBox="0 0 30 30" fill="none" xmlns="http://www.w3.org/2000/svg">
<path fill-rule="evenodd" clip-rule="evenodd" d="M16.8726 4.6596C16.4832 4.5 15.9885 4.5 15.0001 4.5C14.0117 4.5 13.518 4.5 13.1275 4.6596C12.609 4.87192 12.1963 5.28095 11.9801 5.79675C11.8812 6.0309 11.8433 6.30495 11.8275 6.7029C11.8205 6.99123 11.7399 7.27302 11.5933 7.52161C11.4466 7.77019 11.2389 7.97737 10.9896 8.12355C10.7357 8.26436 10.4502 8.33895 10.1597 8.34042C9.86915 8.34189 9.58295 8.27018 9.32758 8.13195C8.9718 7.94505 8.71391 7.84215 8.45918 7.80855C7.90189 7.73556 7.33824 7.88499 6.89081 8.22435C6.55608 8.47845 6.30872 8.90265 5.81505 9.75C5.32032 10.5973 5.07401 11.0205 5.01823 11.4352C4.94454 11.9875 5.09612 12.5461 5.43927 12.9882C5.59505 13.1898 5.81505 13.3588 6.15504 13.5709C6.65713 13.8828 6.97923 14.4141 6.97923 15C6.97923 15.5859 6.65713 16.1172 6.15609 16.428C5.81505 16.6411 5.59505 16.8102 5.43821 17.0118C5.26883 17.2301 5.14451 17.4798 5.07242 17.7463C5.00033 18.0129 4.98191 18.2911 5.01823 18.5647C5.07401 18.9784 5.32032 19.4026 5.81505 20.25C6.30977 21.0973 6.55608 21.5205 6.89081 21.7756C7.33711 22.1148 7.90131 22.2639 8.45918 22.1915C8.71391 22.1579 8.9718 22.0549 9.32758 21.868C9.58308 21.7296 9.86948 21.6578 10.1602 21.6593C10.451 21.6608 10.7366 21.7355 10.9907 21.8764C11.5023 22.1704 11.8054 22.7112 11.8275 23.2971C11.8433 23.6961 11.8812 23.9691 11.9801 24.2032C12.1949 24.7177 12.6075 25.1272 13.1275 25.3404C13.5169 25.5 14.0117 25.5 15.0001 25.5C15.9885 25.5 16.4832 25.5 16.8726 25.3404C17.3911 25.1281 17.8038 24.719 18.02 24.2032C18.1189 23.9691 18.1568 23.6961 18.1726 23.2971C18.1937 22.7112 18.4979 22.1694 19.0105 21.8764C19.2644 21.7356 19.5499 21.661 19.8404 21.6596C20.131 21.6581 20.4172 21.7298 20.6725 21.868C21.0283 22.0549 21.2862 22.1579 21.5409 22.1915C22.0988 22.265 22.663 22.1148 23.1093 21.7756C23.444 21.5215 23.6914 21.0973 24.1851 20.25C24.6798 19.4026 24.9261 18.9795 24.9819 18.5647C25.0181 18.291 24.9995 18.0128 24.9272 17.7462C24.8549 17.4797 24.7304 17.2301 24.5608 17.0118C24.4051 16.8102 24.1851 16.6411 23.8451 16.429C23.343 16.1172 23.0209 15.5859 23.0209 15C23.0209 14.4141 23.343 13.8828 23.844 13.572C24.1851 13.3588 24.4051 13.1898 24.5619 12.9882C24.7313 12.7699 24.8556 12.5202 24.9277 12.2537C24.9998 11.9871 25.0182 11.7089 24.9819 11.4352C24.9261 11.0215 24.6798 10.5973 24.1851 9.75C23.6903 8.90265 23.444 8.4795 23.1093 8.22435C22.6619 7.88499 22.0982 7.73556 21.5409 7.80855C21.2862 7.84215 21.0283 7.94505 20.6725 8.13195C20.417 8.27037 20.1306 8.34218 19.8399 8.34071C19.5492 8.33924 19.2635 8.26454 19.0094 8.12355C18.7604 7.97724 18.5528 7.77001 18.4064 7.52143C18.26 7.27285 18.1795 6.99113 18.1726 6.7029C18.1568 6.3039 18.1189 6.0309 18.02 5.79675C17.913 5.54132 17.7566 5.30943 17.5597 5.11431C17.3629 4.91919 17.1294 4.76468 16.8726 4.6596ZM15.0001 18.15C16.7579 18.15 18.1821 16.7398 18.1821 15C18.1821 13.2601 16.7569 11.85 15.0001 11.85C13.2422 11.85 11.818 13.2601 11.818 15C11.818 16.7398 13.2433 18.15 15.0001 18.15Z" fill="#333333"/>
</svg>
