<svg width="24" height="24" viewBox="0 0 24 24" fill="none" xmlns="http://www.w3.org/2000/svg">
<path d="M16.0199 8.07692C14.0019 8.27092 11.8569 8.87692 10.3669 10.3669C8.87688 11.8569 8.27088 14.0019 8.07688 16.0199M16.0199 8.07692C17.0935 7.98001 18.1734 7.97466 19.2479 8.06092C19.9457 8.10882 20.6026 8.40775 21.0971 8.90243C21.5916 9.39711 21.8902 10.0541 21.9379 10.7519C22.0099 11.6839 22.0359 12.8109 21.9229 13.9799M16.0199 8.07692L21.9229 13.9799M8.07688 16.0199C7.98031 17.0935 7.97529 18.1734 8.06188 19.2479C8.10952 19.9457 8.4082 20.6027 8.9027 21.0974C9.3972 21.5921 10.0541 21.891 10.7519 21.9389C11.8264 22.0255 12.9063 22.0205 13.9799 21.9239M8.07688 16.0199L13.9799 21.9239M21.9229 13.9799C21.7289 15.9979 21.1229 18.1429 19.6329 19.6339C18.1429 21.1239 15.9979 21.7289 13.9799 21.9239" stroke="black" stroke-width="1.5" stroke-linecap="round"/>
<path d="M14.996 8.25186C14.9562 7.19564 14.6581 6.16528 14.128 5.25086C13.6244 4.37649 12.9238 3.63161 12.0818 3.07542C11.2399 2.51923 10.2799 2.16705 9.27801 2.04686C8.41316 1.9441 7.53648 2.01622 6.70005 2.25893C5.86362 2.50165 5.08451 2.91 4.409 3.45974C3.73349 4.00948 3.17537 4.68939 2.76779 5.45906C2.36021 6.22874 2.11149 7.07249 2.0364 7.94018C1.96132 8.80787 2.0614 9.6818 2.33071 10.5101C2.60001 11.3383 3.03305 12.104 3.60408 12.7616C4.17511 13.4192 4.8725 13.9553 5.6548 14.3381C6.43711 14.7209 7.28837 14.9425 8.15801 14.9899" stroke="black" stroke-width="1.5"/>
<path d="M9.215 2C9.215 2 9.077 4.356 10.572 7.19C11.029 8.059 11.528 8.759 12 9.313M3 5.928C3 5.928 4.933 6.975 6.428 9.809C7.923 12.644 7.785 15 7.785 15" stroke="black" stroke-width="1.5"/>
<path d="M12.5 17.5L17.5 12.5M15.5 12.5L17.5 14.5M12.5 15.5L14.5 17.5M14 14L16 16" stroke="black" stroke-width="1.5" stroke-linecap="round"/>
</svg>
