<svg width="24" height="24" viewBox="0 0 24 24" fill="none" xmlns="http://www.w3.org/2000/svg">
<path fill-rule="evenodd" clip-rule="evenodd" d="M10.581 1.24986H10.561C10.447 1.24986 10.359 1.24986 10.275 1.25486C9.75543 1.28645 9.25549 1.46484 8.8333 1.76932C8.41111 2.07379 8.084 2.49184 7.89 2.97486C7.859 3.05186 7.831 3.13486 7.795 3.24386L7.789 3.26286L7.763 3.33986C7.75364 3.3683 7.74398 3.39663 7.734 3.42486C7.574 3.86686 7.043 4.23586 6.481 4.24986L4.661 4.33986C3.875 4.43186 3.202 4.62786 2.633 5.09086C2.43429 5.25254 2.25268 5.43416 2.091 5.63286C1.628 6.20286 1.431 6.87486 1.339 7.66186C1.25 8.42186 1.25 9.37686 1.25 10.5619V10.6399C1.25 10.9239 1.25 11.1899 1.273 11.4139C1.298 11.6619 1.356 11.9259 1.513 12.1799C1.68902 12.4622 1.94578 12.6852 2.25 12.8199C2.253 14.4359 2.274 16.0679 2.419 17.4659C2.504 18.2859 2.634 19.0549 2.841 19.7109C3.044 20.3559 3.344 20.9669 3.82 21.3889C4.643 22.1209 5.68 22.4439 6.973 22.5989C8.243 22.7499 9.871 22.7499 11.949 22.7499H12.051C14.129 22.7499 15.757 22.7499 17.027 22.5979C18.32 22.4439 19.357 22.1209 20.18 21.3889C20.656 20.9669 20.956 20.3559 21.16 19.7109C21.366 19.0549 21.496 18.2859 21.581 17.4659C21.726 16.0679 21.747 14.4359 21.75 12.8199C22.0539 12.685 22.3102 12.462 22.486 12.1799C22.644 11.9259 22.702 11.6619 22.727 11.4139C22.75 11.1899 22.75 10.9239 22.75 10.6399V10.5619C22.75 9.37686 22.75 8.42186 22.66 7.66186C22.568 6.87486 22.372 6.20186 21.909 5.63286C21.7473 5.43416 21.5657 5.25255 21.367 5.09086C20.797 4.62786 20.125 4.43086 19.338 4.33886L17.52 4.24986C16.958 4.23586 16.427 3.86686 16.267 3.42486C16.257 3.39664 16.2473 3.3683 16.238 3.33986L16.206 3.24286C16.17 3.13586 16.143 3.05186 16.111 2.97386C15.9168 2.49102 15.5897 2.07319 15.1675 1.7689C14.7453 1.46461 14.2455 1.28636 13.726 1.25486C13.6311 1.25038 13.536 1.24872 13.441 1.24986H10.581ZM7.571 5.74986H16.43C17.652 5.74986 18.508 5.75186 19.163 5.82886C19.809 5.90486 20.162 6.04486 20.42 6.25486C20.54 6.35186 20.648 6.46086 20.745 6.57986C20.955 6.83786 21.095 7.19086 21.171 7.83686C21.249 8.49886 21.25 9.36586 21.25 10.6089C21.25 10.9349 21.25 11.1239 21.235 11.2629C21.2325 11.3053 21.2248 11.3473 21.212 11.3879C21.2049 11.3995 21.1969 11.4105 21.188 11.4209C21.1526 11.4449 21.1143 11.4644 21.074 11.4789C20.945 11.5329 20.764 11.5879 20.452 11.6809L15.25 13.2419V12.9999C15.25 12.3099 14.69 11.7499 14 11.7499H10C9.31 11.7499 8.75 12.3099 8.75 12.9999V13.2419L3.548 11.6819C3.33776 11.6235 3.13022 11.5557 2.926 11.4789C2.88574 11.4643 2.84744 11.4449 2.812 11.4209L8.75 13.2419L2.788 11.3879C2.77515 11.3473 2.76742 11.3053 2.765 11.2629C2.75036 11.0452 2.74536 10.827 2.75 10.6089C2.75 9.36586 2.751 8.49886 2.829 7.83686C2.905 7.19086 3.045 6.83786 3.255 6.57986C3.35196 6.46072 3.46086 6.35182 3.58 6.25486C3.838 6.04486 4.191 5.90486 4.837 5.82886C5.492 5.75186 6.348 5.74986 7.571 5.74986ZM10.58 2.74986C10.437 2.74986 10.397 2.74986 10.365 2.75186C10.1288 2.76625 9.90159 2.84737 9.7097 2.9858C9.51781 3.12423 9.36915 3.31428 9.281 3.53386C9.2558 3.60087 9.23246 3.66856 9.211 3.73686L9.182 3.82186L9.144 3.93486C9.104 4.04486 9.058 4.14886 9.004 4.24986H14.994C14.9215 4.11305 14.8619 3.96976 14.816 3.82186L14.788 3.73686C14.7664 3.66861 14.743 3.60092 14.718 3.53386C14.6298 3.31414 14.481 3.12399 14.2889 2.98555C14.0968 2.8471 13.8693 2.76607 13.633 2.75186C13.5614 2.74936 13.4897 2.74869 13.418 2.74986H10.58ZM3.752 13.3089C3.759 14.7459 3.788 16.1259 3.911 17.3119C3.991 18.0819 4.107 18.7389 4.271 19.2599C4.439 19.7899 4.633 20.1049 4.816 20.2679C5.311 20.7079 5.994 20.9709 7.151 21.1079C8.321 21.2479 9.86 21.2499 12 21.2499C14.14 21.2499 15.678 21.2489 16.849 21.1089C18.006 20.9709 18.689 20.7069 19.184 20.2679C19.367 20.1049 19.561 19.7899 19.729 19.2599C19.893 18.7399 20.009 18.0819 20.089 17.3119C20.212 16.1259 20.241 14.7449 20.248 13.3089L15.25 14.8079V15.1619C15.25 15.6719 14.939 16.1319 14.464 16.3219L13.764 16.6019C12.6316 17.0548 11.3684 17.0548 10.236 16.6019L9.536 16.3219C9.3041 16.2292 9.10528 16.0691 8.96518 15.8623C8.82509 15.6556 8.75014 15.4116 8.75 15.1619V14.8079L3.752 13.3089ZM10.25 13.2499V14.9919L10.793 15.2089C11.568 15.5189 12.433 15.5189 13.207 15.2089L13.75 14.9919V13.2499H10.25Z" fill="black"/>
</svg>
