<svg width="24" height="24" viewBox="0 0 24 24" fill="none" xmlns="http://www.w3.org/2000/svg">
<path fill-rule="evenodd" clip-rule="evenodd" d="M5.578 5.343C4.22754 6.64551 3.30509 8.32791 2.9331 10.1669C2.5611 12.0059 2.75714 13.9145 3.49519 15.6395C4.23325 17.3645 5.47842 18.8243 7.06546 19.8251C8.65249 20.8259 10.5064 21.3204 12.381 21.243C12.175 20.331 12.147 19.105 12.774 17.924C13.426 16.695 14.776 16.162 15.769 15.918C16.3911 15.7674 17.0272 15.6823 17.667 15.664H17.71C19.383 15.646 20.136 15.102 20.536 14.584C20.878 14.14 21.006 13.697 21.138 13.248L21.188 13.076C21.3509 11.7029 21.2029 10.3108 20.7549 9.00268C20.3069 7.69457 19.5704 6.50396 18.6 5.519C18.5913 5.55242 18.5823 5.58575 18.573 5.619C18.41 6.213 18.148 6.821 17.862 7.255C17.606 7.643 17.11 8.035 16.698 8.331C16.408 8.53432 16.1069 8.72128 15.796 8.891C15.568 9.023 15.363 9.141 15.166 9.271C14.734 9.557 14.4 9.864 14.175 10.327C14.1012 10.4799 14.0887 10.6552 14.14 10.817C14.215 11.089 14.266 11.395 14.266 11.706C14.268 12.355 13.938 12.882 13.513 13.224C13.0813 13.5684 12.5443 13.7541 11.992 13.75C9.537 13.723 8.027 11.73 7.828 9.514C7.748 8.633 7.362 7.741 6.874 6.962C6.5071 6.37299 6.0721 5.83025 5.578 5.343ZM6.745 4.386C7.27447 4.92676 7.74387 5.52323 8.145 6.165C8.703 7.055 9.214 8.177 9.322 9.379C9.472 11.059 10.535 12.233 12.008 12.249C12.2121 12.2493 12.4104 12.181 12.571 12.055C12.717 11.938 12.767 11.815 12.766 11.709C12.766 11.553 12.74 11.381 12.694 11.214C12.546 10.7014 12.5927 10.1523 12.825 9.672C13.21 8.878 13.781 8.387 14.339 8.019C14.578 7.861 14.826 7.719 15.049 7.589L15.139 7.539C15.394 7.391 15.619 7.259 15.822 7.112C16.253 6.802 16.526 6.555 16.609 6.428C16.792 6.152 16.997 5.694 17.127 5.221C17.23 4.847 17.258 4.559 17.249 4.381C15.7062 3.31556 13.8749 2.74653 12 2.75C10.1224 2.74707 8.28877 3.31727 6.745 4.386ZM22.68 13.24C22.727 12.833 22.751 12.42 22.751 12C22.751 6.063 17.938 1.25 12.001 1.25C6.064 1.25 1.25 6.063 1.25 12C1.25 17.937 6.063 22.75 12 22.75C17.46 22.75 21.97 18.679 22.659 13.406C22.6735 13.3536 22.6895 13.3015 22.707 13.25L22.68 13.24ZM19.906 16.807C19.31 17.025 18.592 17.155 17.727 17.164H17.696L17.606 17.167C17.1081 17.1882 16.6134 17.2579 16.129 17.375C15.227 17.596 14.436 17.995 14.1 18.627C13.644 19.486 13.71 20.42 13.88 21.059C15.1221 20.8008 16.2979 20.2902 17.3345 19.5587C18.3711 18.8273 19.2464 17.8907 19.906 16.807Z" fill="black"/>
</svg>
