<svg width="24" height="24" viewBox="0 0 24 24" fill="none" xmlns="http://www.w3.org/2000/svg">
<path d="M6.00481 13.3682C6.03381 13.0722 6.26481 12.7682 6.64281 12.6662C7.02181 12.5642 7.37281 12.7132 7.54581 12.9562C7.66158 13.1179 7.83687 13.2271 8.03313 13.2597C8.22939 13.2922 8.43053 13.2454 8.59231 13.1297C8.7541 13.0139 8.86326 12.8386 8.8958 12.6423C8.92834 12.4461 8.88158 12.2449 8.76581 12.0832C8.21581 11.3132 7.21381 10.9602 6.25481 11.2172C5.29481 11.4742 4.60381 12.2812 4.51181 13.2232C4.50229 13.3212 4.51217 13.4201 4.54089 13.5144C4.56961 13.6086 4.61661 13.6962 4.67919 13.7723C4.74178 13.8483 4.81873 13.9113 4.90566 13.9576C4.99258 14.0039 5.08778 14.0326 5.18581 14.0422C5.28384 14.0517 5.38279 14.0418 5.47701 14.0131C5.57122 13.9844 5.65885 13.9374 5.7349 13.8748C5.81095 13.8122 5.87393 13.7352 5.92024 13.6483C5.96656 13.5614 5.99529 13.4662 6.00481 13.3682ZM11.8008 11.8152C11.8298 11.5192 12.0608 11.2152 12.4388 11.1132C12.8178 11.0112 13.1688 11.1602 13.3418 11.4022C13.4594 11.5588 13.6336 11.6633 13.8272 11.6932C14.0208 11.7231 14.2184 11.6761 14.3778 11.5621C14.5372 11.4482 14.6456 11.2765 14.68 11.0836C14.7144 10.8908 14.672 10.6921 14.5618 10.5302C14.0118 9.76016 13.0098 9.40716 12.0508 9.66416C11.0908 9.92116 10.3998 10.7272 10.3078 11.6702C10.2886 11.8681 10.3488 12.0657 10.4752 12.2193C10.6016 12.3728 10.7838 12.4699 10.9818 12.4892C11.1798 12.5084 11.3773 12.4482 11.5309 12.3218C11.6845 12.1954 11.7816 12.0131 11.8008 11.8152ZM13.6478 15.6292C13.806 15.7474 13.9113 15.9233 13.9406 16.1186C13.9699 16.314 13.921 16.513 13.8044 16.6725C13.6879 16.832 13.5131 16.939 13.3181 16.9704C13.1231 17.0018 12.9235 16.955 12.7628 16.8402L12.7528 16.8342C12.6003 16.7471 12.4373 16.6799 12.2678 16.6342C11.9068 16.5362 11.3378 16.4712 10.5818 16.6742C9.82581 16.8762 9.36681 17.2172 9.10181 17.4822C8.97788 17.6066 8.87034 17.7464 8.78181 17.8982L8.77681 17.9082C8.73696 17.9983 8.67975 18.0796 8.60845 18.1476C8.53715 18.2156 8.45317 18.2688 8.36128 18.3043C8.2694 18.3399 8.17142 18.3569 8.07294 18.3546C7.97445 18.3522 7.8774 18.3305 7.78731 18.2907C7.69723 18.2508 7.61587 18.1936 7.54789 18.1223C7.47992 18.051 7.42665 17.967 7.39113 17.8751C7.35561 17.7832 7.33854 17.6853 7.34089 17.5868C7.34323 17.4883 7.36496 17.3913 7.40481 17.3012L7.40581 17.3002V17.2982L7.40881 17.2942L7.41181 17.2862L7.42281 17.2632L7.45481 17.1992C7.48181 17.1482 7.51981 17.0812 7.56981 17.0032C7.66981 16.8472 7.82181 16.6432 8.03881 16.4252C8.47481 15.9862 9.16281 15.5012 10.1938 15.2252C11.2248 14.9482 12.0638 15.0252 12.6608 15.1872C12.9578 15.2672 13.1908 15.3672 13.3558 15.4532C13.4442 15.4987 13.53 15.5491 13.6128 15.6042L13.6328 15.6192L13.6418 15.6242L13.6448 15.6272L13.6478 15.6292Z" fill="black"/>
<path fill-rule="evenodd" clip-rule="evenodd" d="M13.2528 2.25016L13.2928 2.27016C14.4608 2.81716 14.9858 3.06116 15.5288 3.23316C15.7218 3.29416 15.9158 3.34916 16.1118 3.39716C16.6638 3.53116 17.2338 3.59416 18.5068 3.73116L18.5518 3.73516C19.3598 3.82216 20.0318 3.89516 20.5618 4.01516C21.1158 4.14216 21.6158 4.34316 22.0098 4.75816C22.2398 4.99816 22.4238 5.27916 22.5558 5.58516C22.7808 6.10516 22.7818 6.64916 22.6998 7.22516C22.6198 7.77916 22.4468 8.45716 22.2358 9.28116L21.3798 12.6202C20.6638 15.4132 18.8468 16.9652 17.0228 17.8092C16.2978 19.3832 15.1598 20.5892 14.2188 21.3922L14.1978 21.4102C13.9478 21.6242 13.7008 21.8352 13.3778 22.0202C13.0428 22.2112 12.6538 22.3602 12.1088 22.5132C11.5648 22.6652 11.1558 22.7402 10.7708 22.7492C10.4008 22.7582 10.0838 22.7042 9.7648 22.6492L9.7368 22.6452C7.4158 22.2512 3.7248 20.9312 2.6198 16.6202L1.7638 13.2802C1.5538 12.4572 1.3798 11.7802 1.2998 11.2242C1.2178 10.6492 1.2188 10.1062 1.4438 9.58516C1.5758 9.27916 1.7608 8.99916 1.9898 8.75816C2.3838 8.34316 2.8838 8.14216 3.4378 8.01616C3.9678 7.89416 4.6388 7.82216 5.4478 7.73616L5.4928 7.73116C6.0128 7.67516 6.4138 7.63116 6.7458 7.59116L7.3708 5.15116C7.5818 4.32716 7.7558 3.65016 7.9528 3.12716C8.1558 2.58716 8.4188 2.11016 8.8728 1.76916C9.1378 1.56916 9.4378 1.42116 9.7568 1.33016C10.3068 1.17416 10.8408 1.26416 11.3788 1.44316C11.8948 1.61516 12.5108 1.90216 13.2528 2.25016ZM19.9268 12.2482C19.5148 13.8562 18.6668 14.9492 17.6638 15.6982C17.8225 14.628 17.7613 13.5368 17.4838 12.4912L16.5538 8.85916C16.6897 8.80642 16.8073 8.71498 16.8918 8.59616C17.0648 8.35416 17.4168 8.20616 17.7958 8.30716C18.1738 8.40816 18.4038 8.71316 18.4328 9.00916C18.452 9.20715 18.5491 9.38938 18.7027 9.51578C18.8563 9.64218 19.0538 9.70239 19.2518 9.68316C19.4498 9.66393 19.632 9.56684 19.7584 9.41325C19.8848 9.25966 19.945 9.06215 19.9258 8.86416C19.8348 7.92216 19.1428 7.11516 18.1838 6.85816C17.828 6.76051 17.4544 6.74727 17.0926 6.81949C16.7308 6.89171 16.3908 7.0474 16.0998 7.27416C16.0827 7.2253 16.065 7.17663 16.0468 7.12816C15.8438 6.58816 15.5808 6.11116 15.1268 5.77016C14.8616 5.57072 14.562 5.42189 14.2428 5.33116C13.7228 5.18416 13.2168 5.25616 12.7098 5.41616C12.6052 5.37173 12.4976 5.33464 12.3878 5.30516C11.4278 5.04816 10.4258 5.40116 9.8758 6.17116C9.76228 6.32936 9.71493 6.5256 9.7438 6.71816C9.1938 6.97016 8.8358 7.11816 8.4708 7.23416L8.3788 7.26416L8.8128 5.56716C9.0378 4.69016 9.1928 4.09316 9.3558 3.65716C9.5168 3.22916 9.6518 3.06116 9.7728 2.97016C9.8928 2.88016 10.0268 2.81416 10.1658 2.77416C10.2988 2.73616 10.4948 2.73116 10.9058 2.86816C11.3278 3.00816 11.8638 3.25816 12.6578 3.63016L12.7108 3.65516C13.8108 4.17016 14.4278 4.45916 15.0748 4.66516C15.2998 4.73516 15.5278 4.79916 15.7568 4.85516C16.4168 5.01516 17.0888 5.08816 18.2878 5.21716L18.3468 5.22316C19.2118 5.31616 19.7948 5.38016 20.2268 5.47916C20.6448 5.57416 20.8178 5.68216 20.9228 5.79216C21.0288 5.90316 21.1158 6.03516 21.1788 6.18216C21.2458 6.33616 21.2798 6.55916 21.2148 7.01216C21.1488 7.47716 20.9958 8.07516 20.7718 8.95116L19.9268 12.2482ZM13.0948 6.86816C12.6718 7.00816 12.1358 7.25816 11.3418 7.63016L11.2888 7.65516C10.1888 8.17016 9.5718 8.45916 8.9248 8.66516C8.6998 8.73516 8.4718 8.79916 8.2428 8.85516C7.5828 9.01516 6.9108 9.08816 5.7118 9.21716L5.6528 9.22316C4.7878 9.31616 4.2048 9.38016 3.7728 9.47916C3.3548 9.57416 3.1818 9.68216 3.0768 9.79216C2.96912 9.90604 2.88245 10.0381 2.8208 10.1822C2.7538 10.3362 2.7198 10.5592 2.7848 11.0122C2.8508 11.4772 3.0038 12.0752 3.2278 12.9512L4.0728 16.2482C4.9548 19.6882 7.8708 20.8082 9.9888 21.1682C10.3368 21.2272 10.5208 21.2562 10.7348 21.2502C10.9448 21.2452 11.2208 21.2052 11.7048 21.0702C12.1878 20.9342 12.4468 20.8252 12.6338 20.7182C12.8238 20.6092 12.9718 20.4862 13.2448 20.2532C14.9148 18.8282 16.9168 16.3172 16.0318 12.8632L15.1868 9.56716C14.9618 8.69016 14.8068 8.09316 14.6438 7.65716C14.4828 7.22916 14.3478 7.06116 14.2268 6.97016C14.109 6.88117 13.9758 6.81472 13.8338 6.77416C13.7008 6.73616 13.5048 6.73116 13.0938 6.86816" fill="black"/>
</svg>
