<svg width="24" height="24" viewBox="0 0 24 24" fill="none" xmlns="http://www.w3.org/2000/svg">
<path fill-rule="evenodd" clip-rule="evenodd" d="M17.4062 1.25H18.1672C19.0392 1.25 19.7672 1.25 20.3472 1.328C20.9572 1.41 21.5132 1.59 21.9602 2.036C22.4082 2.482 22.5902 3.037 22.6722 3.648C22.7502 4.226 22.7502 4.952 22.7502 5.821V6.581C22.7502 7.631 22.7502 8.368 22.4702 9.042C22.1902 9.716 21.6682 10.237 20.9232 10.979L20.8232 11.079L18.1532 13.741L18.2462 13.884C18.6402 14.492 18.9592 14.984 19.1892 15.409C19.4272 15.849 19.5972 16.262 19.6652 16.719C19.772 17.4576 19.6752 18.2114 19.3852 18.899C19.2782 19.157 19.0932 19.426 18.9032 19.671C18.7032 19.929 18.4592 20.209 18.1972 20.494C17.6423 21.088 17.0748 21.6701 16.4952 22.24L16.4042 22.33C15.6842 23.048 14.4362 22.816 14.0522 21.853C13.8252 21.281 13.7322 21.053 13.6172 20.843C13.5102 20.6483 13.3874 20.4627 13.2502 20.288C13.1042 20.101 12.9342 19.928 12.5102 19.507L12.0052 19.064C11.9984 19.0578 11.9918 19.0515 11.9852 19.045C11.8907 19.0571 11.7955 19.0631 11.7002 19.063C11.0682 19.063 10.5472 18.8 10.0562 18.426C9.59223 18.073 9.07623 17.559 8.46023 16.945L7.01323 15.502C6.39723 14.888 5.88223 14.374 5.52723 13.911C5.15323 13.421 4.88723 12.901 4.88723 12.269C4.88723 12.155 4.89723 12.043 4.91323 11.932L4.08323 11.105C3.66274 10.672 3.15195 10.337 2.58723 10.124L2.20823 9.974C1.97417 9.88182 1.76677 9.73277 1.60477 9.54033C1.44277 9.34789 1.33128 9.11811 1.28036 8.87176C1.22945 8.62542 1.24071 8.37027 1.31315 8.12937C1.38558 7.88847 1.51689 7.66942 1.69523 7.492L1.70223 7.485C2.27419 6.90738 2.85798 6.34159 3.45323 5.788C3.74023 5.527 4.02123 5.284 4.27823 5.085C4.52523 4.895 4.79523 4.71 5.05223 4.604C5.74166 4.31542 6.49648 4.21934 7.23623 4.326C7.69323 4.393 8.10623 4.562 8.54723 4.8C8.97323 5.03 9.46723 5.347 10.0772 5.74L10.2252 5.835L12.8972 3.17L12.9972 3.071C13.7412 2.328 14.2632 1.807 14.9392 1.528C15.6142 1.249 16.3522 1.25 17.4062 1.25ZM9.13723 6.919C8.57723 6.559 8.17423 6.303 7.83623 6.12C7.47623 5.927 7.23623 5.842 7.01623 5.81C6.54523 5.74285 6.06484 5.80471 5.62623 5.989C5.47234 6.06769 5.32748 6.16292 5.19423 6.273C4.98223 6.436 4.73523 6.649 4.46423 6.896C3.88266 7.43661 3.31253 7.9894 2.75423 8.554L2.75023 8.56V8.567L2.75323 8.575L2.76123 8.579L3.14423 8.731L3.27223 8.782C3.9298 9.05303 4.5298 9.4467 5.04023 9.942C5.06823 9.968 5.09523 9.995 5.13823 10.039L5.61623 10.515C5.68123 10.434 5.75023 10.353 5.82023 10.273C6.14223 9.905 6.55523 9.493 7.03423 9.016L9.13723 6.919ZM13.4542 18.339L13.5352 18.41L13.5872 18.462C13.9772 18.852 14.2202 19.092 14.4312 19.362C14.6182 19.6016 14.7858 19.8557 14.9322 20.122C15.0922 20.413 15.2162 20.72 15.4092 21.205L15.4292 21.185C15.9955 20.6284 16.5499 20.0599 17.0922 19.48C17.3402 19.21 17.5542 18.963 17.7172 18.752C17.8279 18.6197 17.9235 18.4755 18.0022 18.322C18.1867 17.8859 18.2486 17.4077 18.1812 16.939C18.1492 16.721 18.0642 16.482 17.8712 16.124C17.6872 15.786 17.4302 15.384 17.0672 14.824L14.9582 16.926C14.4682 17.414 14.0462 17.835 13.6712 18.159C13.6 18.2204 13.5277 18.2804 13.4542 18.339ZM17.5472 2.75C16.2952 2.75 15.8772 2.763 15.5112 2.914C15.1462 3.065 14.8412 3.35 13.9562 4.233L8.10923 10.062C7.61123 10.559 7.23323 10.936 6.94923 11.262C6.66223 11.587 6.51623 11.811 6.44523 11.987C6.40742 12.0762 6.3877 12.1721 6.38723 12.269C6.38723 12.439 6.44623 12.643 6.71923 12.999C7.00423 13.373 7.44723 13.816 8.10923 14.477L8.26623 14.633L9.79623 13.107C9.93719 12.9664 10.1282 12.8876 10.3273 12.8879C10.5264 12.8882 10.7172 12.9675 10.8577 13.1085C10.9983 13.2495 11.0771 13.4405 11.0768 13.6396C11.0765 13.8386 10.9972 14.0294 10.8562 14.17L9.32923 15.692L9.48223 15.846C10.1452 16.506 10.5892 16.947 10.9642 17.232C11.3222 17.504 11.5272 17.563 11.7002 17.563C11.7891 17.563 11.8772 17.5467 11.9602 17.515C12.1352 17.451 12.3582 17.311 12.6902 17.025C13.0202 16.739 13.4062 16.355 13.9172 15.845L19.7642 10.017C20.6492 9.134 20.9342 8.831 21.0852 8.467C21.2362 8.103 21.2502 7.689 21.2502 6.44V5.873C21.2502 4.939 21.2482 4.313 21.1852 3.848C21.1252 3.405 21.0232 3.219 20.9012 3.098C20.7802 2.977 20.5932 2.874 20.1472 2.814C19.6792 2.752 19.0522 2.75 18.1152 2.75H17.5472ZM16.6632 7.324C16.4391 7.10105 16.1358 6.97589 15.8197 6.97589C15.5036 6.97589 15.2003 7.10105 14.9762 7.324C14.8658 7.43384 14.7782 7.56442 14.7184 7.70823C14.6586 7.85204 14.6278 8.00625 14.6278 8.162C14.6278 8.31775 14.6586 8.47196 14.7184 8.61577C14.7782 8.75958 14.8658 8.89016 14.9762 9C15.2003 9.22295 15.5036 9.34811 15.8197 9.34811C16.1358 9.34811 16.4391 9.22295 16.6632 9C16.7736 8.89016 16.8613 8.75958 16.9211 8.61577C16.9809 8.47196 17.0116 8.31775 17.0116 8.162C17.0116 8.00625 16.9809 7.85204 16.9211 7.70823C16.8613 7.56442 16.7736 7.43384 16.6632 7.324ZM13.9172 6.26C14.4225 5.75645 15.1068 5.47371 15.8202 5.47371C16.5336 5.47371 17.2179 5.75645 17.7232 6.26C17.9735 6.50919 18.1721 6.80536 18.3076 7.1315C18.4431 7.45764 18.5128 7.80733 18.5128 8.1605C18.5128 8.51367 18.4431 8.86336 18.3076 9.1895C18.1721 9.51564 17.9735 9.81181 17.7232 10.061C17.2179 10.5645 16.5336 10.8473 15.8202 10.8473C15.1068 10.8473 14.4225 10.5645 13.9172 10.061C13.6671 9.81182 13.4687 9.51572 13.3333 9.18967C13.1978 8.86362 13.1281 8.51405 13.1281 8.161C13.1281 7.80795 13.1978 7.45838 13.3333 7.13233C13.4687 6.80628 13.6671 6.50918 13.9172 6.26Z" fill="black"/>
</svg>
