<svg width="24" height="24" viewBox="0 0 24 24" fill="none" xmlns="http://www.w3.org/2000/svg">
<path d="M10.927 2.35994C11.0966 2.4638 11.2179 2.63076 11.2644 2.82409C11.311 3.01743 11.2788 3.22132 11.175 3.39094C11.0986 3.51555 11.0664 3.66228 11.0836 3.80743C11.1008 3.95259 11.1665 4.0877 11.27 4.19094L11.368 4.28894C11.957 4.87694 12.174 5.74194 11.933 6.53894C11.9045 6.63323 11.8577 6.72098 11.7953 6.79719C11.7329 6.87339 11.6561 6.93656 11.5693 6.98308C11.4824 7.02961 11.3873 7.05857 11.2893 7.06833C11.1913 7.07808 11.0923 7.06844 10.998 7.03994C10.9037 7.01144 10.8159 6.96465 10.7397 6.90224C10.6635 6.83983 10.6004 6.76302 10.5538 6.6762C10.5073 6.58938 10.4784 6.49424 10.4686 6.39622C10.4588 6.29821 10.4685 6.19923 10.497 6.10494C10.5368 5.97353 10.5401 5.83379 10.5066 5.70064C10.4732 5.56749 10.4042 5.44593 10.307 5.34894L10.21 5.25094C9.86857 4.90982 9.65185 4.46375 9.59471 3.98452C9.53758 3.50529 9.64334 3.02077 9.89499 2.60894C9.94634 2.52476 10.0138 2.45153 10.0935 2.39345C10.1731 2.33536 10.2635 2.29356 10.3594 2.27043C10.4552 2.24731 10.5547 2.24331 10.6521 2.25867C10.7495 2.27402 10.8429 2.30844 10.927 2.35994ZM17.69 4.72194C17.8849 4.76103 18.0563 4.87589 18.1665 5.04126C18.2768 5.20664 18.3169 5.40902 18.278 5.60394L18.134 6.32394C18.0364 6.81074 17.8119 7.26313 17.4834 7.63538C17.1549 8.00763 16.7339 8.28655 16.263 8.44394C16.0427 8.51677 15.8457 8.64681 15.6921 8.82075C15.5386 8.99469 15.4339 9.20631 15.389 9.43394L15.245 10.1539C15.2059 10.349 15.0909 10.5205 14.9253 10.6308C14.8433 10.6854 14.7513 10.7233 14.6547 10.7424C14.558 10.7615 14.4586 10.7613 14.362 10.7419C14.2654 10.7226 14.1736 10.6844 14.0918 10.6295C14.0099 10.5746 13.9397 10.5042 13.8851 10.4222C13.7748 10.2566 13.7349 10.054 13.774 9.85894L13.918 9.13894C14.116 8.14894 14.83 7.33894 15.788 7.01994C16.236 6.86994 16.57 6.49294 16.663 6.02994L16.807 5.30994C16.8461 5.11506 16.9609 4.94368 17.1263 4.83342C17.2917 4.72317 17.4941 4.68308 17.689 4.72194" fill="black"/>
<path fill-rule="evenodd" clip-rule="evenodd" d="M11.7189 8.81287C10.8989 7.99387 10.2249 7.31987 9.63889 6.88487C9.03289 6.43487 8.35989 6.11887 7.58489 6.30187C6.80889 6.48487 6.34889 7.06987 6.00789 7.74187C5.67789 8.39287 5.37589 9.29787 5.00989 10.3969L3.27989 15.5869C2.83689 16.9169 2.47689 17.9959 2.32789 18.8329C2.17789 19.6769 2.19289 20.5339 2.82889 21.1699C3.46489 21.8059 4.32189 21.8209 5.16589 21.6709C6.00289 21.5219 7.08189 21.1629 8.41189 20.7189L13.6019 18.9889C14.7009 18.6229 15.6059 18.3209 16.2569 17.9909C16.9299 17.6509 17.5139 17.1899 17.6969 16.4149C17.8799 15.6389 17.5629 14.9659 17.1139 14.3599C16.6799 13.7739 16.0039 13.0999 15.1859 12.2799L11.7189 8.81287ZM8.69389 8.05287L8.74589 8.08987C9.23189 8.44987 9.82789 9.04387 10.7019 9.91787L11.4619 10.6779L11.4119 10.8109C11.3349 11.0219 11.2339 11.3229 11.1329 11.6909C10.8721 12.6235 10.7356 13.5865 10.7269 14.5549C10.7269 15.6179 10.9329 16.6349 11.1319 17.3749C11.2149 17.6829 11.2979 17.9479 11.3669 18.1529L8.73189 19.0319C8.63715 18.6032 8.5488 18.1732 8.46689 17.7419C8.29289 16.8349 8.11089 15.7349 8.05589 14.8849C7.96389 13.4819 8.14289 11.6499 8.35589 10.1349C8.45381 9.43856 8.5665 8.7444 8.69389 8.05287ZM6.95389 9.35287C6.79589 9.78387 6.62189 10.3029 6.41389 10.9309L4.72389 15.9989C4.25389 17.4059 3.93189 18.3799 3.80389 19.0959C3.67689 19.8159 3.79589 20.0159 3.88989 20.1099C3.98289 20.2029 4.18289 20.3229 4.90389 20.1949C5.49389 20.0889 6.26089 19.8509 7.30189 19.5079L7.22989 19.1839C7.16789 18.8939 7.08289 18.4869 6.99389 18.0239C6.81789 17.1059 6.62089 15.9309 6.55889 14.9839C6.45589 13.4179 6.65489 11.4589 6.87089 9.92587C6.89789 9.72887 6.92589 9.53687 6.95389 9.35387M12.7899 17.6799L13.0689 17.5869C14.2409 17.1969 15.0389 16.9279 15.5789 16.6549C16.1089 16.3859 16.2059 16.2019 16.2369 16.0709C16.2669 15.9399 16.2629 15.7309 15.9089 15.2549C15.5489 14.7689 14.9549 14.1719 14.0809 13.2979L12.6449 11.8609C12.3771 12.7345 12.2366 13.6422 12.2279 14.5559C12.2279 15.1759 12.3119 15.7919 12.4249 16.3359C12.5194 16.7908 12.6412 17.2396 12.7899 17.6799Z" fill="black"/>
<path d="M20.3301 12.7298C20.4748 12.6015 20.6532 12.5173 20.8442 12.4872C21.0353 12.4571 21.2309 12.4822 21.4081 12.5598L21.7001 12.6868C21.7908 12.7298 21.8893 12.7541 21.9897 12.7583C22.09 12.7625 22.1902 12.7466 22.2842 12.7114C22.3783 12.6761 22.4643 12.6224 22.5372 12.5533C22.6101 12.4842 22.6683 12.4012 22.7085 12.3091C22.7487 12.2171 22.77 12.1179 22.7711 12.0175C22.7723 11.9171 22.7532 11.8174 22.7152 11.7245C22.6771 11.6316 22.6207 11.5473 22.5494 11.4765C22.4781 11.4058 22.3933 11.3501 22.3001 11.3128L22.0101 11.1848C21.5704 10.9925 21.0848 10.9301 20.6107 11.0051C20.1367 11.08 19.694 11.2892 19.3351 11.6078C19.0091 11.8968 18.5351 11.9448 18.1571 11.7268L17.9441 11.6038C17.8587 11.5545 17.7645 11.5226 17.6668 11.5097C17.5691 11.4969 17.4698 11.5034 17.3746 11.529C17.2794 11.5545 17.1902 11.5985 17.1121 11.6586C17.0339 11.7186 16.9683 11.7934 16.9191 11.8788C16.8698 11.9641 16.8379 12.0583 16.8251 12.1561C16.8122 12.2538 16.8188 12.353 16.8443 12.4482C16.8698 12.5434 16.9139 12.6326 16.9739 12.7108C17.0339 12.7889 17.1087 12.8545 17.1941 12.9038L17.4071 13.0258C18.3441 13.5658 19.5201 13.4478 20.3301 12.7298ZM13.9791 4.05776C13.8631 4.09476 13.7621 4.19476 13.5611 4.39576C13.3601 4.59676 13.2591 4.69776 13.2231 4.81376C13.192 4.91202 13.192 5.0175 13.2231 5.11576C13.2591 5.23276 13.3601 5.33276 13.5611 5.53376C13.7621 5.73476 13.8631 5.83576 13.9791 5.87276C14.0773 5.90389 14.1828 5.90389 14.2811 5.87276C14.3971 5.83576 14.4981 5.73476 14.6991 5.53376C14.9001 5.33376 15.0011 5.23276 15.0371 5.11576C15.0681 5.01749 15.0681 4.91203 15.0371 4.81376C15.0001 4.69776 14.9001 4.59676 14.6991 4.39576C14.4981 4.19576 14.3971 4.09476 14.2811 4.05776C14.1828 4.02663 14.0773 4.02663 13.9791 4.05776ZM19.4681 7.46776C19.7141 7.22276 19.8361 7.09976 19.9751 7.04676C20.137 6.98444 20.3162 6.98444 20.4781 7.04676C20.6171 7.09976 20.7391 7.22276 20.9851 7.46776C21.2301 7.71376 21.3531 7.83576 21.4061 7.97476C21.4684 8.13664 21.4684 8.31589 21.4061 8.47776C21.3531 8.61676 21.2301 8.73876 20.9851 8.98476C20.7391 9.22976 20.6171 9.35276 20.4781 9.40576C20.3162 9.46808 20.137 9.46808 19.9751 9.40576C19.8361 9.35276 19.7141 9.22976 19.4681 8.98476C19.2231 8.73876 19.1001 8.61676 19.0471 8.47776C18.9848 8.31589 18.9848 8.13664 19.0471 7.97476C19.1001 7.83576 19.2231 7.71376 19.4681 7.46776ZM7.68608 3.93976C7.63618 3.88993 7.57695 3.85041 7.51177 3.82346C7.4466 3.79651 7.37675 3.78267 7.30623 3.78271C7.2357 3.78276 7.16587 3.7967 7.10073 3.82373C7.03559 3.85076 6.97642 3.89036 6.92658 3.94026C6.82593 4.04104 6.76944 4.17768 6.76953 4.32012C6.76958 4.39064 6.78351 4.46047 6.81055 4.52561C6.83758 4.59075 6.87718 4.64993 6.92708 4.69976C7.02786 4.80041 7.1645 4.8569 7.30693 4.85681C7.44937 4.85672 7.58593 4.80005 7.68658 4.69926C7.78723 4.59848 7.84372 4.46184 7.84363 4.31941C7.84353 4.17698 7.78686 4.04041 7.68608 3.93976ZM19.0581 15.3138C19.1079 15.2639 19.1669 15.2244 19.232 15.1974C19.2971 15.1704 19.3668 15.1565 19.4372 15.1564C19.5077 15.1564 19.5774 15.1702 19.6425 15.1971C19.7076 15.224 19.7667 15.2635 19.8166 15.3133C19.8664 15.363 19.906 15.4221 19.933 15.4872C19.96 15.5522 19.9739 15.622 19.9739 15.6924C19.974 15.7628 19.9601 15.8326 19.9332 15.8977C19.9063 15.9628 19.8668 16.0219 19.8171 16.0718C19.7166 16.1724 19.5802 16.229 19.4379 16.2291C19.2957 16.2292 19.1592 16.1728 19.0586 16.0723C18.9579 15.9717 18.9013 15.8354 18.9012 15.6931C18.9011 15.5509 18.9576 15.4144 19.0581 15.3138ZM18.2591 9.74176C18.1586 9.64111 18.0222 9.58452 17.8799 9.58442C17.7377 9.58433 17.6012 9.64075 17.5006 9.74126C17.3999 9.84178 17.3433 9.97816 17.3432 10.1204C17.3431 10.2627 17.3996 10.3991 17.5001 10.4998C17.6006 10.6004 17.737 10.657 17.8792 10.6571C18.0215 10.6572 18.1579 10.6008 18.2586 10.5003C18.3592 10.3997 18.4158 10.2634 18.4159 10.1211C18.416 9.97887 18.3596 9.84241 18.2591 9.74176Z" fill="black"/>
</svg>
