<svg width="24" height="24" viewBox="0 0 24 24" fill="none" xmlns="http://www.w3.org/2000/svg">
<path d="M10.093 10.7461C10.183 10.6181 10.257 10.5121 10.323 10.4211C10.379 10.5191 10.442 10.6321 10.517 10.7691L12.227 13.8791C12.393 14.1811 12.557 14.4771 12.72 14.6921C12.895 14.9221 13.202 15.2371 13.695 15.2471C14.188 15.2561 14.508 14.9531 14.691 14.7291C14.863 14.5211 15.036 14.2311 15.214 13.9351L15.269 13.8431C15.49 13.4751 15.629 13.2451 15.752 13.0781C15.865 12.9251 15.931 12.8751 15.98 12.8481C16.029 12.8201 16.105 12.7891 16.295 12.7711C16.501 12.7511 16.769 12.7511 17.199 12.7511H18C18.1989 12.7511 18.3897 12.6721 18.5303 12.5314C18.671 12.3908 18.75 12.2 18.75 12.0011C18.75 11.8022 18.671 11.6114 18.5303 11.4708C18.3897 11.3301 18.1989 11.2511 18 11.2511H17.166C16.779 11.2511 16.436 11.2511 16.15 11.2781C15.8313 11.2999 15.5209 11.3899 15.24 11.5421C14.9651 11.7044 14.7284 11.9241 14.546 12.1861C14.375 12.4181 14.199 12.7111 14 13.0431L13.952 13.1231C13.865 13.2671 13.793 13.3871 13.728 13.4911L13.518 13.1141L11.809 10.0061C11.655 9.7261 11.502 9.4461 11.346 9.2421C11.176 9.0181 10.884 8.7221 10.416 8.6971C9.949 8.6711 9.627 8.9341 9.434 9.1381C9.257 9.3251 9.074 9.5861 8.891 9.8481L8.581 10.2901C8.354 10.6151 8.211 10.8171 8.088 10.9631C7.975 11.0971 7.912 11.1411 7.865 11.1651C7.819 11.1901 7.747 11.2161 7.572 11.2321C7.382 11.2491 7.134 11.2501 6.738 11.2501H6C5.80109 11.2501 5.61032 11.3291 5.46967 11.4698C5.32902 11.6104 5.25 11.8012 5.25 12.0001C5.25 12.199 5.32902 12.3898 5.46967 12.5304C5.61032 12.6711 5.80109 12.7501 6 12.7501H6.768C7.125 12.7501 7.442 12.7501 7.708 12.7261C7.998 12.6991 8.279 12.6411 8.558 12.4961C8.81912 12.3553 9.04907 12.1631 9.234 11.9311C9.407 11.7271 9.588 11.4681 9.793 11.1751L10.093 10.7461Z" fill="black"/>
<path fill-rule="evenodd" clip-rule="evenodd" d="M22.75 9.25987C22.75 6.07987 21.258 3.60587 18.976 2.65687C16.846 1.77087 14.274 2.30987 12 4.43687C9.726 2.30987 7.154 1.76987 5.024 2.65687C2.742 3.60687 1.25 6.07887 1.25 9.25987C1.25 11.3859 2.38 13.4799 3.786 15.2829C5.207 17.1029 6.996 18.7349 8.488 19.9519L8.622 20.0619C9.822 21.0419 10.69 21.7499 12 21.7499C13.31 21.7499 14.178 21.0419 15.377 20.0619L15.512 19.9519C17.005 18.7349 18.792 17.1039 20.214 15.2819C21.621 13.4789 22.75 11.3859 22.75 9.25987ZM12.55 6.00987C14.647 3.75487 16.827 3.38787 18.4 4.04187C19.992 4.70387 21.25 6.52987 21.25 9.25987C21.25 10.8819 20.37 12.6449 19.031 14.3599C17.707 16.0569 16.014 17.6069 14.564 18.7899C13.171 19.9259 12.722 20.2499 12 20.2499C11.278 20.2499 10.829 19.9249 9.436 18.7899C7.986 17.6069 6.293 16.0569 4.969 14.3599C3.63 12.6449 2.75 10.8819 2.75 9.25987C2.75 6.52987 4.008 4.70487 5.6 4.04187C7.173 3.38787 9.353 3.75487 11.45 6.00987C11.5202 6.0856 11.6053 6.14602 11.6999 6.18733C11.7946 6.22865 11.8967 6.24997 12 6.24997C12.1033 6.24997 12.2054 6.22865 12.3001 6.18733C12.3947 6.14602 12.4798 6.0856 12.55 6.00987Z" fill="black"/>
</svg>
