<svg width="24" height="24" viewBox="0 0 24 24" fill="none" xmlns="http://www.w3.org/2000/svg">
<path fill-rule="evenodd" clip-rule="evenodd" d="M2.924 10.207C2.76449 11.0187 2.71405 11.848 2.774 12.673L2.84 12.727C3.06 12.903 3.37 13.137 3.732 13.37C4.489 13.858 5.332 14.25 6 14.25C6.436 14.25 6.964 14.081 7.518 13.802C7.855 13.632 8.177 13.435 8.461 13.242C8.24961 12.639 8.19579 11.992 8.30466 11.3624C8.41352 10.7328 8.68146 10.1415 9.08305 9.64447C9.48463 9.14748 10.0065 8.76135 10.5993 8.52271C11.192 8.28407 11.8359 8.20084 12.4698 8.28092C13.1037 8.36099 13.7066 8.60171 14.2214 8.98024C14.7362 9.35877 15.1457 9.86255 15.4111 10.4438C15.6764 11.025 15.7889 11.6644 15.7378 12.3013C15.6867 12.9382 15.4737 13.5515 15.119 14.083C15.341 14.19 15.571 14.25 15.805 14.25C16.268 14.25 16.487 14.03 16.922 13.516L16.954 13.478C17.315 13.05 17.843 12.424 18.78 12.28C18.6524 12.2409 18.5376 12.1685 18.4473 12.0702C18.357 11.972 18.2946 11.8514 18.2665 11.721C18.2384 11.5905 18.2456 11.455 18.2873 11.3282C18.3291 11.2015 18.4039 11.0882 18.504 11L20.182 9.522C20.2742 9.44068 20.385 9.38328 20.5047 9.35486C20.6243 9.32643 20.7491 9.32786 20.868 9.359C20.6392 8.58986 20.3107 7.85396 19.891 7.17L19.531 7.53C19.4618 7.60166 19.3791 7.65884 19.2876 7.69819C19.1961 7.73754 19.0977 7.75827 18.9982 7.75919C18.8986 7.7601 18.7998 7.74117 18.7076 7.7035C18.6154 7.66583 18.5317 7.61018 18.4612 7.5398C18.3908 7.46941 18.335 7.3857 18.2973 7.29354C18.2595 7.20139 18.2405 7.10264 18.2413 7.00306C18.2421 6.90347 18.2628 6.80505 18.302 6.71353C18.3413 6.622 18.3984 6.53922 18.47 6.47L18.994 5.946C18.1265 4.94177 17.0527 4.13643 15.8457 3.58488C14.6387 3.03334 13.327 2.74857 12 2.75C10.23 2.75 8.576 3.247 7.17 4.11L7.53 4.47C7.66248 4.61217 7.7346 4.80022 7.73117 4.99452C7.72775 5.18882 7.64903 5.37421 7.51162 5.51162C7.37421 5.64903 7.18882 5.72775 6.99452 5.73117C6.80022 5.7346 6.61217 5.66248 6.47 5.53L5.946 5.006C4.93329 5.88267 4.12238 6.9682 3.569 8.188C3.76665 8.17873 3.95995 8.24794 4.1068 8.38055C4.25364 8.51317 4.34214 8.69843 4.353 8.896L4.432 10.308C4.43745 10.4064 4.42347 10.5048 4.39087 10.5978C4.35826 10.6907 4.30767 10.7764 4.24197 10.8498C4.17627 10.9232 4.09676 10.9829 4.00797 11.0256C3.91918 11.0683 3.82286 11.0931 3.7245 11.0985C3.62614 11.104 3.52767 11.09 3.43471 11.0574C3.34175 11.0248 3.25613 10.9742 3.18272 10.9085C3.10932 10.8428 3.04957 10.7633 3.0069 10.6745C2.96422 10.5857 2.93945 10.4894 2.934 10.391L2.924 10.207ZM21.154 10.665L19.495 12.125C19.4355 12.1777 19.368 12.2205 19.295 12.252C20.052 12.281 20.693 12.599 21.199 12.98C21.2799 12.2094 21.2648 11.4318 21.154 10.665ZM20.851 14.697C20.409 14.198 19.819 13.75 19.184 13.75C18.721 13.75 18.503 13.97 18.068 14.484L18.036 14.522C17.626 15.009 17 15.75 15.806 15.75C15.098 15.75 14.49 15.493 14.003 15.17C13.423 15.537 12.737 15.75 12 15.75C11.4793 15.7505 10.9642 15.6422 10.4877 15.4321C10.0112 15.222 9.58387 14.9148 9.233 14.53C8.923 14.738 8.569 14.953 8.193 15.142C7.551 15.465 6.776 15.75 6 15.75C4.987 15.75 3.953 15.262 3.18 14.793C3.77723 16.6739 4.96012 18.3146 6.55593 19.4756C8.15174 20.6366 10.0769 21.257 12.0503 21.2463C14.0237 21.2355 15.942 20.5942 17.5251 19.416C19.1083 18.2378 20.2742 16.5843 20.851 14.697ZM1.25 12C1.25 6.063 6.063 1.25 12 1.25C17.937 1.25 22.75 6.063 22.75 12C22.75 17.937 17.937 22.75 12 22.75C6.063 22.75 1.25 17.937 1.25 12ZM10.47 3.47C10.6106 3.32955 10.8012 3.25066 11 3.25066C11.1988 3.25066 11.3894 3.32955 11.53 3.47L12.53 4.47C12.6625 4.61217 12.7346 4.80022 12.7312 4.99452C12.7277 5.18882 12.649 5.37421 12.5116 5.51162C12.3742 5.64903 12.1888 5.72775 11.9945 5.73117C11.8002 5.7346 11.6122 5.66248 11.47 5.53L10.47 4.53C10.3295 4.38937 10.2507 4.19875 10.2507 4C10.2507 3.80125 10.3295 3.61063 10.47 3.47ZM16.45 4.4C16.5288 4.4591 16.5952 4.53313 16.6454 4.61788C16.6955 4.70263 16.7285 4.79643 16.7425 4.89393C16.7564 4.99144 16.751 5.09073 16.7265 5.18614C16.7021 5.28155 16.6591 5.37121 16.6 5.45L15.1 7.45C15.0409 7.52879 14.9669 7.59517 14.8821 7.64536C14.7974 7.69554 14.7036 7.72853 14.6061 7.74246C14.5086 7.75639 14.4093 7.75098 14.3139 7.72654C14.2185 7.70209 14.1288 7.65909 14.05 7.6C13.9712 7.5409 13.9048 7.46687 13.8546 7.38212C13.8045 7.29737 13.7715 7.20357 13.7575 7.10607C13.7436 7.00856 13.749 6.90927 13.7735 6.81386C13.7979 6.71845 13.8409 6.62879 13.9 6.55L15.4 4.55C15.4591 4.47121 15.5331 4.40482 15.6179 4.35464C15.7026 4.30446 15.7964 4.27147 15.8939 4.25754C15.9914 4.24361 16.0907 4.24902 16.1861 4.27346C16.2815 4.29791 16.3712 4.34091 16.45 4.4ZM11.224 6.806C11.2753 6.99801 11.2483 7.20255 11.149 7.37467C11.0496 7.5468 10.8859 7.67244 10.694 7.724L9.328 8.09C9.2317 8.11945 9.13046 8.1292 9.03031 8.11868C8.93017 8.10816 8.83316 8.07759 8.74508 8.02877C8.65701 7.97995 8.57967 7.9139 8.51767 7.83455C8.45567 7.7552 8.41028 7.66418 8.38422 7.56691C8.35816 7.46964 8.35195 7.36812 8.36596 7.2684C8.37998 7.16868 8.41393 7.07281 8.4658 6.98649C8.51767 6.90018 8.58638 6.82519 8.66786 6.766C8.74933 6.70682 8.84188 6.66465 8.94 6.642L10.306 6.276C10.498 6.22468 10.7025 6.25166 10.8747 6.35104C11.0468 6.45042 11.1724 6.61405 11.224 6.806ZM5.897 7.174C6.07802 7.0917 6.28431 7.08466 6.47052 7.15442C6.65673 7.22417 6.80761 7.36502 6.89 7.546L7.475 8.833C7.55214 9.01318 7.55568 9.2164 7.48486 9.39915C7.41405 9.58191 7.27451 9.72968 7.09611 9.81085C6.9177 9.89201 6.71462 9.90011 6.53032 9.83342C6.34602 9.76672 6.19515 9.63054 6.11 9.454L5.524 8.167C5.48328 8.07731 5.46063 7.98047 5.45734 7.88203C5.45405 7.78358 5.47018 7.68545 5.50482 7.59324C5.53946 7.50103 5.59192 7.41655 5.65921 7.34461C5.7265 7.27268 5.8073 7.2147 5.897 7.174ZM16.615 8.227C16.8136 8.21777 17.0078 8.28779 17.1548 8.42168C17.3018 8.55558 17.3897 8.74237 17.399 8.941L17.465 10.354C17.4719 10.4536 17.4588 10.5537 17.4264 10.6482C17.3941 10.7427 17.3433 10.8298 17.2768 10.9044C17.2104 10.979 17.1297 11.0395 17.0396 11.0825C16.9494 11.1255 16.8516 11.1501 16.7518 11.1547C16.652 11.1594 16.5523 11.1441 16.4585 11.1097C16.3647 11.0753 16.2788 11.0225 16.2057 10.9544C16.1326 10.8864 16.0738 10.8044 16.0328 10.7133C15.9918 10.6222 15.9695 10.5239 15.967 10.424L15.901 9.012C15.8963 8.91356 15.911 8.81517 15.9444 8.72243C15.9777 8.62969 16.029 8.54443 16.0953 8.47153C16.1616 8.39863 16.2417 8.33951 16.3308 8.29755C16.42 8.25559 16.5166 8.23162 16.615 8.227ZM12 9.75C11.4033 9.75 10.831 9.98705 10.409 10.409C9.98705 10.831 9.75 11.4033 9.75 12C9.75 12.5967 9.98705 13.169 10.409 13.591C10.831 14.0129 11.4033 14.25 12 14.25C12.5967 14.25 13.169 14.0129 13.591 13.591C14.0129 13.169 14.25 12.5967 14.25 12C14.25 11.4033 14.0129 10.831 13.591 10.409C13.169 9.98705 12.5967 9.75 12 9.75ZM6.943 10.895C7.10342 11.0125 7.21061 11.1889 7.24099 11.3855C7.27137 11.582 7.22245 11.7825 7.105 11.943L6.27 13.084C6.21269 13.1657 6.13967 13.235 6.05521 13.2881C5.97075 13.3412 5.87654 13.3769 5.77812 13.3931C5.67969 13.4094 5.57901 13.4058 5.48198 13.3826C5.38495 13.3595 5.29352 13.3172 5.21303 13.2583C5.13254 13.1993 5.06462 13.1249 5.01324 13.0394C4.96187 12.9539 4.92806 12.859 4.91381 12.7603C4.89956 12.6615 4.90515 12.561 4.93025 12.4644C4.95535 12.3679 4.99946 12.2773 5.06 12.198L5.895 11.058C6.01237 10.8974 6.18871 10.79 6.38524 10.7595C6.58178 10.7289 6.78241 10.7777 6.943 10.895Z" fill="black"/>
</svg>
