<svg width="24" height="24" viewBox="0 0 24 24" fill="none" xmlns="http://www.w3.org/2000/svg">
<path fill-rule="evenodd" clip-rule="evenodd" d="M2.94819 6.388C1.43019 4.837 2.54519 2.25 4.70019 2.25H19.2982C21.4542 2.25 22.5682 4.837 21.0512 6.388L12.7492 14.878V20.25H16.2432C16.4421 20.25 16.6329 20.329 16.7735 20.4697C16.9142 20.6103 16.9932 20.8011 16.9932 21C16.9932 21.1989 16.9142 21.3897 16.7735 21.5303C16.6329 21.671 16.4421 21.75 16.2432 21.75H7.75619C7.55727 21.75 7.36651 21.671 7.22586 21.5303C7.0852 21.3897 7.00619 21.1989 7.00619 21C7.00619 20.8011 7.0852 20.6103 7.22586 20.4697C7.36651 20.329 7.55727 20.25 7.75619 20.25H11.2502V14.877L2.94819 6.388ZM12.0002 13.498L14.9332 10.5H9.06719L12.0002 13.498ZM7.60019 9H16.4002L19.9802 5.34C20.5552 4.751 20.1452 3.75 19.3002 3.75H4.70019C3.85519 3.75 3.44519 4.751 4.02019 5.34L7.60019 9Z" fill="black"/>
</svg>
