<svg width="24" height="24" viewBox="0 0 24 24" fill="none" xmlns="http://www.w3.org/2000/svg">
<path fill-rule="evenodd" clip-rule="evenodd" d="M9.46498 2.82022C10.2573 2.44476 11.1232 2.25 12 2.25C12.8768 2.25 13.7426 2.44476 14.535 2.82022L21.227 5.95822C22.279 6.45122 22.75 7.52222 22.75 8.50022C22.75 9.47822 22.28 10.5502 21.227 11.0432L19.75 11.7352V16.6252C19.75 17.8782 19.122 19.0882 17.978 19.7222C17.226 20.1382 16.238 20.6392 15.198 21.0382C14.171 21.4322 13.034 21.7502 12 21.7502C10.966 21.7502 9.82897 21.4322 8.80097 21.0382C7.76097 20.6392 6.77397 20.1382 6.02197 19.7222C4.87797 19.0882 4.24998 17.8782 4.24998 16.6252V11.5002C4.24998 11.4592 4.25298 11.4182 4.25998 11.3782C4.23791 11.2434 4.25308 11.1051 4.30385 10.9783C4.35462 10.8515 4.43905 10.741 4.54805 10.6586C4.65704 10.5763 4.78646 10.5253 4.92232 10.5111C5.05818 10.4969 5.19533 10.5201 5.31897 10.5782L10.101 12.8212C10.6942 13.1035 11.343 13.25 12 13.25C12.657 13.25 13.3057 13.1035 13.899 12.8212L20.59 9.68422C20.993 9.49522 21.25 9.04422 21.25 8.50022C21.25 7.95622 20.993 7.50522 20.59 7.31622L13.9 4.17922C13.3067 3.89695 12.658 3.75048 12.001 3.75048C11.344 3.75048 10.6952 3.89695 10.102 4.17922L3.41198 7.31622C3.23189 7.40082 3.02558 7.41042 2.83842 7.34291C2.65126 7.2754 2.49858 7.1363 2.41398 6.95622C2.32937 6.77613 2.31977 6.56982 2.38728 6.38266C2.4548 6.1955 2.59389 6.04282 2.77397 5.95822L9.46498 2.82022ZM5.74997 12.4392V16.6262C5.74997 17.3892 6.12898 18.0672 6.74898 18.4112C7.46498 18.8072 8.38697 19.2732 9.33897 19.6382C10.302 20.0082 11.238 20.2512 12 20.2512C12.762 20.2512 13.698 20.0082 14.662 19.6382C15.5521 19.2883 16.4174 18.8783 17.252 18.4112C17.872 18.0672 18.25 17.3892 18.25 16.6262V12.4392L14.536 14.1802C13.7435 14.5559 12.8775 14.7508 12.0005 14.7508C11.1235 14.7508 10.2574 14.5559 9.46498 14.1802L5.74997 12.4392Z" fill="black"/>
<path d="M6.69 7.70483C6.76804 7.8877 6.77027 8.09408 6.6962 8.2786C6.62213 8.46312 6.47782 8.61067 6.295 8.68883L5.22 9.14983C4.617 9.40883 4.22 9.57983 3.928 9.74383C3.652 9.89883 3.532 10.0148 3.456 10.1308C3.38 10.2458 3.321 10.4008 3.287 10.7158C3.251 11.0488 3.25 11.4818 3.25 12.1378V14.9998C3.25 15.1987 3.17098 15.3895 3.03033 15.5302C2.88968 15.6708 2.69891 15.7498 2.5 15.7498C2.30109 15.7498 2.11032 15.6708 1.96967 15.5302C1.82902 15.3895 1.75 15.1987 1.75 14.9998V12.0988C1.75 11.4918 1.75 10.9788 1.796 10.5548C1.844 10.1048 1.95 9.69083 2.204 9.30483C2.459 8.91883 2.798 8.65883 3.193 8.43683C3.563 8.22783 4.036 8.02583 4.593 7.78683L5.705 7.31083C5.88775 7.23273 6.09403 7.23035 6.27852 7.30423C6.46302 7.3781 6.61165 7.52218 6.69 7.70483Z" fill="black"/>
</svg>
