<svg width="24" height="24" viewBox="0 0 24 24" fill="none" xmlns="http://www.w3.org/2000/svg">
<path fill-rule="evenodd" clip-rule="evenodd" d="M16.877 2.59818L16.852 2.64418L16.776 2.78218L17.642 3.30418L17.72 3.16218L17.744 3.12018L17.703 3.09518L16.922 2.62518L16.877 2.59818ZM17.205 4.79218L15.733 3.90518L13.068 5.21518C12.0205 5.71202 11.2092 6.5994 10.808 7.68718L10.867 7.65718C11.4573 7.36209 12.1198 7.24228 12.776 7.31192C13.4323 7.38157 14.0548 7.63776 14.57 8.05018C15.087 8.46418 15.78 8.58718 16.409 8.37818L17.464 8.02618L17.454 7.89318L17.205 4.79218ZM18.962 8.79018C19.0074 8.65349 19.0123 8.50657 18.976 8.36718C18.976 8.23618 18.972 8.10418 18.964 7.97318L18.949 7.78018L18.687 4.51318L19.042 3.87118C19.1018 3.76792 19.1572 3.66216 19.208 3.55418C19.261 3.43818 19.319 3.28018 19.328 3.08718C19.3399 2.82956 19.2718 2.57457 19.133 2.35718C19.0439 2.22188 18.9294 2.10508 18.796 2.01318C18.6978 1.94494 18.5967 1.88088 18.493 1.82118L18.477 1.81118L17.678 1.32918C17.5703 1.26265 17.4602 1.19994 17.348 1.14118C17.1961 1.0621 17.0298 1.01481 16.859 1.00218C16.5892 0.986227 16.3215 1.05815 16.096 1.20718C15.9545 1.30323 15.8341 1.42708 15.742 1.57118C15.677 1.66918 15.611 1.78918 15.55 1.89918L15.227 2.48218L12.4 3.87218L12.232 3.95518C10.606 4.79018 9.46001 6.36018 9.11601 8.18818C9.10601 8.23818 9.09701 8.29118 9.08201 8.37818L9.08101 8.38518L9.05101 8.55918C8.78195 10.0553 8.04902 11.4288 6.95601 12.4852L6.15201 13.2762C5.64801 13.7722 5.24201 14.1712 4.93801 14.5162C4.62801 14.8662 4.37801 15.2092 4.22801 15.6032C4.03013 16.1237 3.95983 16.684 4.02298 17.2373C4.08614 17.7906 4.28092 18.3207 4.59101 18.7832C4.82701 19.1332 5.14901 19.4092 5.53001 19.6772C5.90301 19.9402 6.38901 20.2322 6.99001 20.5952L7.70301 21.0252C8.30401 21.3862 8.79001 21.6792 9.19501 21.8852C9.60701 22.0952 10.001 22.2512 10.42 22.2902C10.9697 22.3398 11.523 22.2479 12.0272 22.0231C12.5313 21.7983 12.9695 21.4483 13.3 21.0062C13.554 20.6722 13.713 20.2752 13.848 19.8232C13.981 19.3782 14.109 18.8122 14.268 18.1082L14.523 16.9862L14.562 16.8162C14.9083 15.3395 15.7122 14.0099 16.859 13.0172L16.865 13.0122L17.006 12.8872C18.1614 11.8244 18.862 10.3568 18.962 8.79018ZM17.296 9.66318L16.883 9.80118C16.3359 9.98349 15.7519 10.0259 15.1842 9.92461C14.6165 9.8233 14.0833 9.58147 13.633 9.22118C13.3415 8.98789 12.9893 8.843 12.618 8.80366C12.2467 8.76432 11.8719 8.83217 11.538 8.99918L10.352 9.59218C9.9572 11.0378 9.19599 12.357 8.14201 13.4222L8.01201 13.5522L7.22301 14.3262C6.69501 14.8462 6.32601 15.2092 6.06201 15.5082C5.79901 15.8062 5.68501 15.9902 5.62901 16.1382C5.40101 16.7382 5.47901 17.4182 5.83401 17.9452C5.92101 18.0732 6.07101 18.2252 6.39301 18.4502C6.71701 18.6792 7.15701 18.9442 7.78801 19.3242L8.45301 19.7242C9.08401 20.1052 9.52401 20.3692 9.87501 20.5482C10.225 20.7262 10.421 20.7842 10.56 20.7972C11.146 20.8522 11.728 20.5972 12.104 20.1012C12.198 19.9782 12.294 19.7822 12.411 19.3932C12.527 19.0032 12.645 18.4872 12.811 17.7502L13.061 16.6502L13.103 16.4682C13.5064 14.7526 14.4215 13.2 15.727 12.0162L15.864 11.8952L15.868 11.8912L15.996 11.7782C16.6175 11.2077 17.0677 10.4753 17.296 9.66318Z" fill="black"/>
</svg>
