<svg width="24" height="24" viewBox="0 0 24 24" fill="none" xmlns="http://www.w3.org/2000/svg">
<path fill-rule="evenodd" clip-rule="evenodd" d="M4.97502 2.25H19.025C19.47 2.25 19.841 2.25 20.145 2.27C20.462 2.292 20.762 2.339 21.052 2.46C21.3858 2.59809 21.6891 2.80057 21.9445 3.05589C22.2 3.3112 22.4027 3.61434 22.541 3.948C22.661 4.238 22.708 4.538 22.729 4.855C22.75 5.159 22.75 5.53 22.75 5.975V6.025C22.75 6.47 22.75 6.841 22.73 7.145C22.7171 7.45574 22.6529 7.7622 22.54 8.052C22.392 8.41044 22.1698 8.73351 21.888 9C22.167 9.264 22.391 9.586 22.541 9.948C22.661 10.238 22.708 10.538 22.729 10.855C22.75 11.159 22.75 11.53 22.75 11.975V12.025C22.75 12.47 22.75 12.841 22.73 13.145C22.7171 13.4557 22.6529 13.7622 22.54 14.052C22.392 14.4104 22.1698 14.7335 21.888 15C22.167 15.264 22.391 15.586 22.541 15.948C22.661 16.238 22.708 16.538 22.729 16.855C22.75 17.159 22.75 17.53 22.75 17.975V18.025C22.75 18.47 22.75 18.841 22.73 19.145C22.7171 19.4557 22.6529 19.7622 22.54 20.052C22.4019 20.3857 22.1994 20.689 21.9441 20.9445C21.6888 21.2 21.3857 21.4027 21.052 21.541C20.762 21.661 20.462 21.708 20.145 21.729C19.841 21.75 19.47 21.75 19.025 21.75H4.97502C4.53002 21.75 4.15902 21.75 3.85502 21.73C3.54429 21.7171 3.23782 21.6529 2.94802 21.54C2.61427 21.4019 2.311 21.1994 2.05551 20.9441C1.80002 20.6888 1.59734 20.3857 1.45902 20.052C1.33902 19.762 1.29202 19.462 1.27102 19.145C1.25002 18.841 1.25002 18.47 1.25002 18.025V17.975C1.25002 17.53 1.25002 17.159 1.27002 16.855C1.28327 16.5443 1.34746 16.2379 1.46002 15.948C1.60808 15.5896 1.83028 15.2665 2.11202 15C1.82955 14.7337 1.60667 14.4106 1.45802 14.052C1.33802 13.762 1.29102 13.462 1.27002 13.145C1.24902 12.841 1.24902 12.47 1.24902 12.025V11.975C1.24902 11.53 1.24902 11.159 1.26902 10.855C1.29102 10.537 1.33902 10.238 1.45902 9.948C1.60737 9.58947 1.82992 9.26639 2.11202 9C1.82955 8.7337 1.60667 8.41062 1.45802 8.052C1.33802 7.762 1.29102 7.462 1.27002 7.145C1.24902 6.841 1.24902 6.47 1.24902 6.025V5.975C1.24902 5.53 1.24902 5.159 1.26902 4.855C1.28227 4.5443 1.34646 4.23789 1.45902 3.948C1.59711 3.61425 1.7996 3.31097 2.05491 3.05549C2.31022 2.8 2.61337 2.59731 2.94702 2.459C3.23702 2.339 3.53702 2.292 3.85402 2.271C4.15802 2.25 4.53002 2.25 4.97502 2.25ZM4.99902 8.25C4.52302 8.25 4.20302 8.25 3.95602 8.233C3.71502 8.216 3.59802 8.187 3.52102 8.155C3.36923 8.09218 3.2313 8.00005 3.11514 7.88389C2.99897 7.76772 2.90684 7.6298 2.84402 7.478C2.81202 7.401 2.78302 7.284 2.76602 7.043C2.75008 6.69558 2.74474 6.34775 2.75002 6C2.75002 5.524 2.75002 5.204 2.76702 4.957C2.78402 4.716 2.81302 4.599 2.84502 4.522C2.97202 4.215 3.21502 3.972 3.52202 3.845C3.59902 3.813 3.71602 3.784 3.95702 3.767C4.30444 3.75072 4.65226 3.74505 5.00002 3.75H19C19.476 3.75 19.796 3.75 20.043 3.767C20.284 3.784 20.401 3.813 20.478 3.845C20.785 3.972 21.028 4.215 21.155 4.522C21.187 4.599 21.216 4.716 21.233 4.957C21.25 5.204 21.25 5.524 21.25 6C21.25 6.476 21.25 6.796 21.233 7.043C21.216 7.284 21.187 7.401 21.155 7.478C21.0922 7.6298 21.0001 7.76772 20.8839 7.88389C20.7677 8.00005 20.6298 8.09218 20.478 8.155C20.401 8.187 20.284 8.216 20.043 8.233C19.796 8.25 19.476 8.25 19 8.25H4.99902ZM4.99902 9.75C4.52302 9.75 4.20302 9.75 3.95602 9.767C3.71502 9.784 3.59802 9.813 3.52102 9.845C3.36923 9.90782 3.2313 9.99995 3.11514 10.1161C2.99897 10.2323 2.90684 10.3702 2.84402 10.522C2.81202 10.599 2.78302 10.716 2.76602 10.957C2.74902 11.204 2.74902 11.524 2.74902 12C2.74902 12.476 2.74902 12.796 2.76602 13.043C2.78302 13.284 2.81202 13.401 2.84402 13.478C2.97102 13.785 3.21402 14.028 3.52102 14.155C3.59802 14.187 3.71502 14.216 3.95602 14.233C4.20302 14.25 4.52302 14.25 4.99902 14.25H18.999C19.475 14.25 19.795 14.25 20.042 14.233C20.283 14.216 20.4 14.187 20.477 14.155C20.784 14.028 21.027 13.785 21.154 13.478C21.186 13.401 21.215 13.284 21.232 13.043C21.249 12.796 21.249 12.476 21.249 12C21.249 11.524 21.249 11.204 21.232 10.957C21.215 10.716 21.186 10.599 21.154 10.522C21.0912 10.3702 20.9991 10.2323 20.8829 10.1161C20.7667 9.99995 20.6288 9.90782 20.477 9.845C20.4 9.813 20.283 9.784 20.042 9.767C19.6949 9.75074 19.3474 9.74507 19 9.75H4.99902ZM4.99902 15.75C4.52302 15.75 4.20302 15.75 3.95602 15.767C3.71502 15.784 3.59802 15.813 3.52102 15.845C3.36923 15.9078 3.2313 15.9999 3.11514 16.1161C2.99897 16.2323 2.90684 16.3702 2.84402 16.522C2.81202 16.599 2.78302 16.716 2.76602 16.957C2.74902 17.204 2.74902 17.524 2.74902 18C2.74902 18.476 2.74902 18.796 2.76602 19.043C2.78302 19.284 2.81202 19.401 2.84402 19.478C2.97102 19.785 3.21402 20.028 3.52102 20.155C3.59802 20.187 3.71502 20.216 3.95602 20.233C4.20302 20.25 4.52302 20.25 4.99902 20.25H18.999C19.475 20.25 19.795 20.25 20.042 20.233C20.283 20.216 20.4 20.187 20.477 20.155C20.784 20.028 21.027 19.785 21.154 19.478C21.186 19.401 21.215 19.284 21.232 19.043C21.249 18.796 21.249 18.476 21.249 18C21.249 17.524 21.249 17.204 21.232 16.957C21.215 16.716 21.186 16.599 21.154 16.522C21.0912 16.3702 20.9991 16.2323 20.8829 16.1161C20.7667 15.9999 20.6288 15.9078 20.477 15.845C20.4 15.813 20.283 15.784 20.042 15.767C19.6949 15.7507 19.3474 15.7451 19 15.75H4.99902Z" fill="black"/>
<path d="M6 12C6 12.2652 5.89464 12.5196 5.70711 12.7071C5.51957 12.8946 5.26522 13 5 13C4.73478 13 4.48043 12.8946 4.29289 12.7071C4.10536 12.5196 4 12.2652 4 12C4 11.7348 4.10536 11.4804 4.29289 11.2929C4.48043 11.1054 4.73478 11 5 11C5.26522 11 5.51957 11.1054 5.70711 11.2929C5.89464 11.4804 6 11.7348 6 12ZM6 6C6 6.26522 5.89464 6.51957 5.70711 6.70711C5.51957 6.89464 5.26522 7 5 7C4.73478 7 4.48043 6.89464 4.29289 6.70711C4.10536 6.51957 4 6.26522 4 6C4 5.73478 4.10536 5.48043 4.29289 5.29289C4.48043 5.10536 4.73478 5 5 5C5.26522 5 5.51957 5.10536 5.70711 5.29289C5.89464 5.48043 6 5.73478 6 6ZM6 18C6 18.2652 5.89464 18.5196 5.70711 18.7071C5.51957 18.8946 5.26522 19 5 19C4.73478 19 4.48043 18.8946 4.29289 18.7071C4.10536 18.5196 4 18.2652 4 18C4 17.7348 4.10536 17.4804 4.29289 17.2929C4.48043 17.1054 4.73478 17 5 17C5.26522 17 5.51957 17.1054 5.70711 17.2929C5.89464 17.4804 6 17.7348 6 18Z" fill="black"/>
</svg>
