<svg width="24" height="24" viewBox="0 0 24 24" fill="none" xmlns="http://www.w3.org/2000/svg">
<path fill-rule="evenodd" clip-rule="evenodd" d="M12 4.75C10.94 4.75 10.09 5.078 8.066 5.888L5.257 7.01C4.247 7.414 3.547 7.696 3.093 7.934C3.05264 7.955 3.01264 7.97667 2.973 7.999L3.093 8.064C3.547 8.302 4.247 8.584 5.257 8.988L8.066 10.111C10.091 10.921 10.94 11.249 12 11.249C13.06 11.249 13.91 10.921 15.934 10.111L18.743 8.988C19.753 8.584 20.453 8.302 20.907 8.064L21.027 7.999C20.9874 7.97667 20.9474 7.955 20.907 7.934C20.453 7.696 19.753 7.414 18.743 7.01L15.934 5.887C13.91 5.078 13.06 4.75 12 4.75ZM7.624 4.449C9.501 3.698 10.621 3.25 12 3.25C13.38 3.25 14.499 3.698 16.376 4.449L16.491 4.495L19.345 5.637C20.3 6.019 21.073 6.327 21.604 6.606C21.872 6.746 22.132 6.906 22.333 7.099C22.539 7.297 22.75 7.597 22.75 8C22.75 8.403 22.54 8.703 22.333 8.901C22.133 9.094 21.873 9.253 21.603 9.394C21.252 9.578 20.793 9.776 20.247 10C20.7081 10.1817 21.1609 10.3839 21.604 10.606C21.872 10.746 22.132 10.906 22.333 11.099C22.539 11.297 22.75 11.597 22.75 12C22.75 12.403 22.54 12.703 22.333 12.901C22.133 13.094 21.873 13.253 21.603 13.394C21.252 13.578 20.793 13.776 20.247 14C20.7081 14.1817 21.1609 14.3839 21.604 14.606C21.872 14.746 22.132 14.906 22.333 15.099C22.539 15.297 22.75 15.597 22.75 16C22.75 16.403 22.54 16.703 22.333 16.901C22.133 17.093 21.873 17.253 21.603 17.394C21.073 17.672 20.3 17.982 19.345 18.364L16.491 19.504L16.376 19.551C14.499 20.302 13.379 20.75 12 20.75C10.62 20.75 9.501 20.302 7.624 19.551L7.509 19.505L4.655 18.363C3.7 17.982 2.927 17.673 2.396 17.394C2.13152 17.2639 1.88621 17.098 1.667 16.901C1.461 16.703 1.25 16.403 1.25 16C1.25 15.597 1.46 15.297 1.667 15.099C1.867 14.906 2.127 14.747 2.397 14.606C2.748 14.422 3.207 14.224 3.753 14C3.29189 13.8183 2.83911 13.6161 2.396 13.394C2.13152 13.2639 1.88621 13.098 1.667 12.901C1.461 12.703 1.25 12.403 1.25 12C1.25 11.597 1.46 11.297 1.667 11.099C1.867 10.906 2.127 10.747 2.397 10.606C2.748 10.422 3.207 10.224 3.753 10C3.29189 9.81825 2.83911 9.61605 2.396 9.394C2.13152 9.26391 1.88621 9.09802 1.667 8.901C1.461 8.703 1.25 8.403 1.25 8C1.25 7.597 1.46 7.297 1.667 7.099C1.867 6.906 2.127 6.747 2.397 6.606C2.927 6.328 3.7 6.019 4.655 5.636L7.509 4.496L7.624 4.449ZM5.766 10.808L5.257 11.011C4.247 11.415 3.547 11.697 3.093 11.935C3.05265 11.956 3.01265 11.9777 2.973 12L3.093 12.066C3.547 12.303 4.247 12.584 5.257 12.989L8.066 14.112C10.091 14.922 10.94 15.25 12 15.25C13.06 15.25 13.91 14.922 15.934 14.112L18.743 12.989C19.753 12.584 20.453 12.303 20.907 12.065L21.027 12C20.9874 11.9774 20.9474 11.9554 20.907 11.934C20.453 11.697 19.753 11.415 18.743 11.011L18.233 10.808L16.491 11.505L16.376 11.551C14.499 12.302 13.379 12.75 12 12.75C10.62 12.75 9.501 12.302 7.624 11.551L7.509 11.505L5.766 10.808ZM5.766 14.808L5.257 15.011C4.247 15.415 3.547 15.697 3.093 15.935C3.05265 15.956 3.01265 15.9777 2.973 16L3.093 16.066C3.547 16.303 4.247 16.584 5.257 16.989L8.066 18.112C10.091 18.922 10.94 19.25 12 19.25C13.06 19.25 13.91 18.922 15.934 18.112L18.743 16.989C19.753 16.584 20.453 16.303 20.907 16.065L21.027 16C20.9874 15.9774 20.9474 15.9554 20.907 15.934C20.453 15.697 19.753 15.415 18.743 15.011L18.233 14.808L16.491 15.505L16.376 15.551C14.499 16.302 13.379 16.75 12 16.75C10.62 16.75 9.501 16.302 7.624 15.551L7.509 15.505L5.766 14.808Z" fill="black"/>
</svg>
