<svg width="24" height="24" viewBox="0 0 24 24" fill="none" xmlns="http://www.w3.org/2000/svg">
<path fill-rule="evenodd" clip-rule="evenodd" d="M18.004 1.49998C18.1366 1.35202 18.3224 1.26271 18.5208 1.25165C18.7191 1.24059 18.9138 1.30868 19.062 1.44098C20.2235 2.4776 21.1526 3.74822 21.7882 5.1694C22.4238 6.59057 22.7516 8.13014 22.75 9.68698C22.75 15.438 18.361 20.165 12.75 20.7V21.25H14C14.1989 21.25 14.3897 21.329 14.5303 21.4696C14.671 21.6103 14.75 21.8011 14.75 22C14.75 22.1989 14.671 22.3897 14.5303 22.5303C14.3897 22.671 14.1989 22.75 14 22.75H9.99998C9.80106 22.75 9.6103 22.671 9.46965 22.5303C9.32899 22.3897 9.24998 22.1989 9.24998 22C9.24998 21.8011 9.32899 21.6103 9.46965 21.4696C9.6103 21.329 9.80106 21.25 9.99998 21.25H11.25V20.741C9.768 20.684 8.31271 20.329 6.97101 19.697C5.62931 19.0651 4.42873 18.1692 3.44098 17.063C3.37464 16.9897 3.32345 16.904 3.29036 16.8108C3.25726 16.7177 3.2429 16.6189 3.24811 16.5202C3.25333 16.4215 3.278 16.3247 3.32073 16.2356C3.36345 16.1464 3.42338 16.0666 3.49706 16.0007C3.57075 15.9348 3.65673 15.8841 3.75008 15.8516C3.84342 15.819 3.94228 15.8052 4.04097 15.811C4.13965 15.8168 4.23623 15.842 4.32513 15.8853C4.41403 15.9285 4.4935 15.9889 4.55898 16.063C5.455 17.067 6.55336 17.8701 7.78188 18.4194C9.0104 18.9687 10.3413 19.2517 11.687 19.25C14.2232 19.25 16.6556 18.2424 18.449 16.449C20.2424 14.6556 21.25 12.2232 21.25 9.68698C21.2516 8.34118 20.9684 7.01027 20.4189 5.78175C19.8695 4.55323 19.0662 3.4549 18.062 2.55898C17.9884 2.4933 17.9285 2.41376 17.8858 2.32492C17.843 2.23607 17.8181 2.13967 17.8127 2.04121C17.8072 1.94275 17.8212 1.84418 17.8538 1.75114C17.8865 1.6581 17.9372 1.57241 18.003 1.49898M7.22098 5.96997C6.43727 6.89914 5.94152 8.03666 5.79443 9.24327C5.64733 10.4499 5.85528 11.6732 6.39281 12.7634C6.93033 13.8536 7.77411 14.7635 8.82081 15.3815C9.86752 15.9995 11.0717 16.2989 12.286 16.243C12.1755 15.5317 12.2949 14.8037 12.627 14.165C13.115 13.246 14.108 12.868 14.785 12.702C15.2176 12.597 15.66 12.5377 16.105 12.525H16.137C16.887 12.517 17.307 12.342 17.555 12.164C17.804 11.984 17.95 11.749 18.057 11.484C18.0659 11.4612 18.0759 11.4388 18.087 11.417C18.322 10.4016 18.3 9.34355 18.0229 8.3388C17.7458 7.33405 17.2223 6.41433 16.5 5.66298C16.3894 5.99499 16.2415 6.31337 16.059 6.61198C15.848 6.94397 15.449 7.26597 15.142 7.49498C14.9199 7.6569 14.6889 7.80614 14.45 7.94198C14.278 8.04397 14.13 8.13298 13.987 8.23098C13.68 8.44098 13.456 8.65798 13.303 8.98298C13.2629 9.07138 13.2571 9.17158 13.287 9.26398C13.345 9.48497 13.386 9.73497 13.387 9.99197C13.389 11.113 12.349 11.759 11.491 11.749C9.50598 11.726 8.33498 10.06 8.18298 8.30097C8.11098 7.46497 7.67998 6.62098 7.22098 5.96997ZM8.32698 4.93998C8.91698 5.73698 9.56698 6.89997 9.67698 8.17097C9.78698 9.44098 10.546 10.238 11.507 10.249C11.6137 10.248 11.717 10.211 11.8 10.144C11.873 10.082 11.886 10.029 11.886 9.99598C11.8847 9.87828 11.8679 9.76128 11.836 9.64797C11.7165 9.21547 11.7552 8.75455 11.945 8.34797C12.25 7.69497 12.704 7.29198 13.139 6.99298C13.324 6.86698 13.516 6.75297 13.683 6.65298L13.749 6.61298C13.9197 6.51439 14.0856 6.4076 14.246 6.29298C14.57 6.05098 14.749 5.87598 14.793 5.80698C15.0022 5.44644 15.147 5.05221 15.221 4.64198C14.2488 4.05635 13.1349 3.74788 12 3.74997C10.628 3.74997 9.35998 4.19197 8.32798 4.94197M16.818 13.982C16.61 14.009 16.388 14.024 16.153 14.027H16.135C16.123 14.027 16.105 14.027 16.079 14.029C15.7638 14.0425 15.4506 14.0867 15.144 14.161C14.559 14.304 14.124 14.547 13.954 14.87C13.753 15.248 13.726 15.657 13.767 15.998C14.9625 15.6451 16.0242 14.9431 16.818 13.982ZM4.24998 9.99998C4.24998 7.94455 5.06649 5.9733 6.5199 4.5199C7.97331 3.06649 9.94455 2.24998 12 2.24998C14.0554 2.24998 16.0266 3.06649 17.4801 4.5199C18.9335 5.9733 19.75 7.94455 19.75 9.99998C19.75 12.0554 18.9335 14.0266 17.4801 15.4801C16.0266 16.9335 14.0554 17.75 12 17.75C9.94455 17.75 7.97331 16.9335 6.5199 15.4801C5.06649 14.0266 4.24998 12.0554 4.24998 9.99998Z" fill="black"/>
</svg>
