<svg width="24" height="24" viewBox="0 0 24 24" fill="none" xmlns="http://www.w3.org/2000/svg">
<path fill-rule="evenodd" clip-rule="evenodd" d="M1.75 6.5C1.75 5.24022 2.25045 4.03204 3.14124 3.14124C4.03204 2.25045 5.24022 1.75 6.5 1.75C7.75978 1.75 8.96796 2.25045 9.85876 3.14124C10.7496 4.03204 11.25 5.24022 11.25 6.5V9.231C11.25 9.473 11.251 9.726 11.19 9.953C11.1105 10.2496 10.9543 10.52 10.7372 10.7372C10.52 10.9543 10.2496 11.1105 9.953 11.19C9.726 11.251 9.473 11.25 9.231 11.25H6.5C5.24022 11.25 4.03204 10.7496 3.14124 9.85876C2.25045 8.96796 1.75 7.75978 1.75 6.5ZM6.5 3.25C5.63805 3.25 4.8114 3.59241 4.20191 4.20191C3.59241 4.8114 3.25 5.63805 3.25 6.5C3.25 7.36196 3.59241 8.18861 4.20191 8.7981C4.8114 9.40759 5.63805 9.75 6.5 9.75H9.167C9.328 9.75 9.425 9.75 9.497 9.747C9.52042 9.74625 9.54379 9.74424 9.567 9.741C9.60855 9.72947 9.6464 9.70738 9.67689 9.67689C9.70738 9.6464 9.72947 9.60855 9.741 9.567C9.74424 9.54379 9.74625 9.52042 9.747 9.497C9.75021 9.38703 9.75121 9.27701 9.75 9.167V6.5C9.75 5.63805 9.40759 4.8114 8.7981 4.20191C8.18861 3.59241 7.36196 3.25 6.5 3.25ZM14.77 12.75H17.5C18.4395 12.75 19.3578 13.0286 20.139 13.5505C20.9201 14.0725 21.5289 14.8143 21.8884 15.6823C22.2479 16.5502 22.342 17.5053 22.1587 18.4267C21.9755 19.3481 21.5231 20.1945 20.8588 20.8588C20.1945 21.5231 19.3481 21.9755 18.4267 22.1587C17.5053 22.342 16.5502 22.2479 15.6823 21.8884C14.8143 21.5289 14.0725 20.9201 13.5505 20.139C13.0286 19.3578 12.75 18.4395 12.75 17.5V14.769C12.75 14.527 12.749 14.274 12.81 14.047C12.8895 13.7504 13.0457 13.48 13.2628 13.2628C13.48 13.0457 13.7504 12.8895 14.047 12.81C14.274 12.749 14.527 12.75 14.769 12.75M14.432 14.26C14.3906 14.2714 14.3528 14.2934 14.3223 14.3237C14.2918 14.354 14.2697 14.3916 14.258 14.433C14.2551 14.4562 14.2534 14.4796 14.253 14.503C14.2495 14.613 14.2481 14.723 14.249 14.833V17.5C14.249 18.1428 14.4396 18.7711 14.7967 19.3056C15.1538 19.8401 15.6614 20.2566 16.2553 20.5026C16.8491 20.7486 17.5026 20.813 18.133 20.6876C18.7635 20.5622 19.3426 20.2526 19.7971 19.7981C20.2516 19.3436 20.5612 18.7645 20.6866 18.134C20.812 17.5036 20.7476 16.8501 20.5016 16.2563C20.2556 15.6624 19.8391 15.1548 19.3046 14.7977C18.7701 14.4406 18.1418 14.25 17.499 14.25H14.832C14.67 14.25 14.574 14.25 14.502 14.254C14.4786 14.2544 14.4552 14.2561 14.432 14.259M9.496 14.261C9.29753 14.2503 9.09874 14.2466 8.9 14.25H6.5C5.85721 14.25 5.22886 14.4406 4.6944 14.7977C4.15994 15.1548 3.74338 15.6624 3.49739 16.2563C3.25141 16.8501 3.18705 17.5036 3.31245 18.134C3.43785 18.7645 3.74738 19.3436 4.20191 19.7981C4.65643 20.2526 5.23552 20.5622 5.86596 20.6876C6.4964 20.813 7.14986 20.7486 7.74372 20.5026C8.33758 20.2566 8.84516 19.8401 9.20228 19.3056C9.55939 18.7711 9.75 18.1428 9.75 17.5V15.1C9.75 14.808 9.75 14.633 9.739 14.504C9.7369 14.4635 9.73087 14.4233 9.721 14.384C9.69771 14.3393 9.66146 14.3027 9.617 14.279C9.57734 14.2691 9.53682 14.2631 9.496 14.261ZM9.618 12.766C9.831 12.784 10.064 12.823 10.294 12.941C10.624 13.108 10.892 13.376 11.059 13.706C11.177 13.936 11.217 14.169 11.234 14.382C11.25 14.58 11.25 14.816 11.25 15.074V17.5C11.25 18.4395 10.9714 19.3578 10.4495 20.139C9.92755 20.9201 9.1857 21.5289 8.31775 21.8884C7.4498 22.2479 6.49473 22.342 5.57332 22.1587C4.65191 21.9755 3.80554 21.5231 3.14124 20.8588C2.47695 20.1945 2.02455 19.3481 1.84127 18.4267C1.65799 17.5053 1.75206 16.5502 2.11157 15.6823C2.47109 14.8143 3.07991 14.0725 3.86104 13.5505C4.64218 13.0286 5.56054 12.75 6.5 12.75H8.926C9.184 12.75 9.42 12.75 9.618 12.766ZM12.75 6.5C12.75 5.56054 13.0286 4.64218 13.5505 3.86104C14.0725 3.07991 14.8143 2.47109 15.6823 2.11157C16.5502 1.75206 17.5053 1.65799 18.4267 1.84127C19.3481 2.02455 20.1945 2.47695 20.8588 3.14124C21.5231 3.80554 21.9755 4.65191 22.1587 5.57332C22.342 6.49473 22.2479 7.4498 21.8884 8.31775C21.5289 9.1857 20.9201 9.92755 20.139 10.4495C19.3578 10.9714 18.4395 11.25 17.5 11.25H14.615C14.511 11.25 14.403 11.25 14.305 11.239C13.9109 11.1948 13.5435 11.0181 13.2629 10.7377C12.9824 10.4574 12.8054 10.0901 12.761 9.696C12.7516 9.59262 12.748 9.48879 12.75 9.385V9.357V6.5ZM17.5 3.25C16.638 3.25 15.8114 3.59241 15.2019 4.20191C14.5924 4.8114 14.25 5.63805 14.25 6.5V9.499L14.252 9.529C14.2594 9.58998 14.2889 9.64611 14.335 9.68669C14.3811 9.72726 14.4406 9.74944 14.502 9.749L14.642 9.75H17.5C18.362 9.75 19.1886 9.40759 19.7981 8.7981C20.4076 8.18861 20.75 7.36196 20.75 6.5C20.75 5.63805 20.4076 4.8114 19.7981 4.20191C19.1886 3.59241 18.362 3.25 17.5 3.25Z" fill="black"/>
</svg>
