<svg width="24" height="24" viewBox="0 0 24 24" fill="none" xmlns="http://www.w3.org/2000/svg">
<path d="M3.3398 17.0002C6.0998 21.7832 12.2158 23.4202 16.9998 20.6602C18.8754 19.5811 20.3484 17.9203 21.1958 15.9292C21.8071 14.5015 22.0769 12.951 21.9839 11.4008C21.8908 9.85059 21.4374 8.34345 20.6598 6.99918C19.8844 5.65388 18.8059 4.50797 17.51 3.65251C16.2141 2.79704 14.7366 2.25559 13.1948 2.07118C11.0469 1.80941 8.87214 2.25454 6.9998 3.33918C2.2168 6.10118 0.577799 12.2172 3.3398 17.0002Z" stroke="black" stroke-width="1.5"/>
<path d="M16.9498 20.5732C16.9498 20.5732 16.0098 13.9822 13.9998 10.5002C11.9898 7.01825 7.0498 3.42725 7.0498 3.42725" stroke="black" stroke-width="1.5" stroke-linecap="round"/>
<path d="M21.8636 12.58C16.4526 11.393 9.05857 16.348 7.57657 20.818M16.4136 3.20898C14.9256 7.62898 7.67357 12.512 2.28857 11.452" stroke="black" stroke-width="1.5" stroke-linecap="round"/>
</svg>
