<svg width="24" height="24" viewBox="0 0 24 24" fill="none" xmlns="http://www.w3.org/2000/svg">
<path fill-rule="evenodd" clip-rule="evenodd" d="M8.25 18C8.25 17.8011 8.32902 17.6103 8.46967 17.4697C8.61032 17.329 8.80109 17.25 9 17.25H15C15.1989 17.25 15.3897 17.329 15.5303 17.4697C15.671 17.6103 15.75 17.8011 15.75 18C15.75 18.1989 15.671 18.3897 15.5303 18.5303C15.3897 18.671 15.1989 18.75 15 18.75H9C8.80109 18.75 8.61032 18.671 8.46967 18.5303C8.32902 18.3897 8.25 18.1989 8.25 18Z" fill="black"/>
<path fill-rule="evenodd" clip-rule="evenodd" d="M8.6998 1.25H15.2998C15.5198 1.25 15.6888 1.25 15.8358 1.266C16.4882 1.33589 17.0942 1.63677 17.5442 2.11431C17.9943 2.59185 18.2587 3.21456 18.2898 3.87C18.8766 4.04692 19.3919 4.40592 19.7611 4.89508C20.1304 5.38424 20.3344 5.97819 20.3438 6.591C20.9448 6.771 21.4638 7.056 21.8878 7.514C22.5398 8.219 22.7418 9.086 22.7498 10.1C22.7568 11.075 22.5838 12.307 22.3678 13.836L21.9278 16.95C21.7598 18.146 21.6228 19.118 21.4098 19.879C21.1868 20.676 20.8578 21.331 20.2498 21.835C19.6458 22.335 18.9298 22.55 18.0838 22.652C17.2648 22.75 16.2348 22.75 14.9538 22.75H9.0458C7.7638 22.75 6.7338 22.75 5.9158 22.652C5.0688 22.55 4.3528 22.335 3.7488 21.835C3.1408 21.331 2.8118 20.675 2.5888 19.879C2.3758 19.118 2.2388 18.146 2.0698 16.949L1.6308 13.836C1.4158 12.306 1.2408 11.075 1.2488 10.1C1.2568 9.086 1.4588 8.219 2.1108 7.514C2.5348 7.056 3.0528 6.772 3.6538 6.591C3.66343 5.97824 3.86773 5.38442 4.23716 4.89544C4.60658 4.40647 5.12198 4.04769 5.7088 3.871C5.73967 3.21539 6.00401 2.59243 6.45406 2.11469C6.90411 1.63694 7.51019 1.33592 8.1628 1.266C8.3098 1.25 8.4788 1.25 8.6978 1.25M5.1878 6.328C6.1138 6.25 7.2478 6.25 8.6148 6.25H15.3828C16.7488 6.25 17.8828 6.25 18.8098 6.328C18.7406 6.02176 18.5692 5.74819 18.3238 5.55228C18.0785 5.35636 17.7738 5.24976 17.4598 5.25H6.5388C5.8698 5.25 5.3268 5.72 5.1898 6.328M15.6768 2.758C16.2268 2.816 16.6618 3.226 16.7688 3.75H7.2318C7.28485 3.49001 7.41927 3.25364 7.61559 3.07512C7.81191 2.8966 8.05995 2.78518 8.3238 2.757C8.3798 2.751 8.4598 2.75 8.7408 2.75H15.2588C15.5388 2.75 15.6188 2.751 15.6758 2.757M3.2128 8.532C3.5158 8.205 3.9708 7.988 4.8558 7.87C5.7568 7.75 6.9638 7.749 8.6718 7.749H15.3278C17.0358 7.749 18.2428 7.751 19.1438 7.87C20.0288 7.988 20.4838 8.205 20.7868 8.532C21.0828 8.852 21.2438 9.287 21.2498 10.111C21.2558 10.961 21.0998 12.081 20.8738 13.687L20.4508 16.687C20.2728 17.948 20.1488 18.82 19.9658 19.474C19.7888 20.104 19.5818 20.439 19.2928 20.678C18.9998 20.922 18.6058 21.078 17.9048 21.162C17.1858 21.248 16.2468 21.249 14.9048 21.249H9.0948C7.7528 21.249 6.8138 21.248 6.0948 21.162C5.3948 21.077 4.9998 20.922 4.7068 20.679C4.4178 20.439 4.2108 20.103 4.0338 19.474C3.8508 18.82 3.7268 17.948 3.5488 16.687L3.1258 13.687C2.8998 12.082 2.7438 10.961 2.7498 10.111C2.7558 9.287 2.9168 8.851 3.2128 8.532Z" fill="black"/>
</svg>
