<svg width="24" height="24" viewBox="0 0 24 24" fill="none" xmlns="http://www.w3.org/2000/svg">
<path fill-rule="evenodd" clip-rule="evenodd" d="M11.25 3.85012C11.25 3.09112 10.67 2.66512 10.162 2.76812C5.938 3.62712 2.75 7.39412 2.75 11.9181C2.75 17.0781 6.897 21.2501 12 21.2501C17.103 21.2501 21.25 17.0781 21.25 11.9171C21.25 8.22112 19.12 5.02712 16.034 3.51612C15.9456 3.47278 15.8665 3.41245 15.8014 3.33857C15.7363 3.26468 15.6863 3.17869 15.6544 3.08551C15.6225 2.99233 15.6093 2.89377 15.6155 2.79548C15.6217 2.69718 15.6472 2.60107 15.6905 2.51262C15.7338 2.42417 15.7942 2.34513 15.8681 2.28C15.9419 2.21487 16.0279 2.16494 16.1211 2.13304C16.2143 2.10114 16.3128 2.08791 16.4111 2.0941C16.5094 2.10029 16.6056 2.12578 16.694 2.16912C18.5144 3.06455 20.0471 4.45283 21.1176 6.17608C22.1882 7.89932 22.7538 9.8884 22.75 11.9171C22.75 17.8941 17.943 22.7501 12 22.7501C6.057 22.7501 1.25 17.8941 1.25 11.9171C1.25 6.67512 4.946 2.29712 9.863 1.29812C11.521 0.96112 12.75 2.38212 12.75 3.85112V5.30912C15.017 5.66912 16.75 7.63212 16.75 10.0001V14.0001C16.75 15.2599 16.2496 16.4681 15.3588 17.3589C14.468 18.2497 13.2598 18.7501 12 18.7501C10.7402 18.7501 9.53204 18.2497 8.64124 17.3589C7.75045 16.4681 7.25 15.2599 7.25 14.0001V10.0001C7.2503 8.87047 7.65311 7.77788 8.38617 6.91837C9.11922 6.05887 10.1345 5.48869 11.25 5.31012V3.85012ZM11.25 6.83712C10.6639 6.9766 10.128 7.27603 9.70194 7.70206C9.27591 8.12808 8.97648 8.66399 8.837 9.25012H11.25V6.83712ZM12.75 9.25012H15.163C15.0235 8.66399 14.7241 8.12808 14.2981 7.70206C13.872 7.27603 13.3361 6.9766 12.75 6.83712V9.25012ZM15.25 10.7501H8.75V14.0001C8.75 14.8621 9.09241 15.6887 9.7019 16.2982C10.3114 16.9077 11.138 17.2501 12 17.2501C12.862 17.2501 13.6886 16.9077 14.2981 16.2982C14.9076 15.6887 15.25 14.8621 15.25 14.0001V10.7501Z" fill="black"/>
</svg>
