<svg width="24" height="24" viewBox="0 0 24 24" fill="none" xmlns="http://www.w3.org/2000/svg">
<path fill-rule="evenodd" clip-rule="evenodd" d="M15.5828 1.42013C16.8948 1.86113 17.7498 3.09613 17.7498 4.71513C17.7498 5.73213 17.1718 6.66913 16.5268 7.41513C15.8638 8.18413 15.0258 8.87313 14.2918 9.40813L14.1988 9.47613C13.4868 9.99613 12.8988 10.4261 11.9998 10.4261C11.0998 10.4261 10.5138 9.99613 9.80178 9.47613L9.70778 9.40813C8.97378 8.87313 8.13578 8.18413 7.47278 7.41613C6.82978 6.66913 6.24978 5.73213 6.24978 4.71513C6.24978 3.09613 7.10478 1.86213 8.41678 1.42013C9.53678 1.04313 10.8388 1.29213 11.9998 2.13713C13.1608 1.29213 14.4638 1.04313 15.5828 1.42013ZM15.1048 2.84213C14.4528 2.62213 13.4798 2.76413 12.5078 3.65813C12.3694 3.78533 12.1883 3.85592 12.0003 3.85592C11.8123 3.85592 11.6312 3.78533 11.4928 3.65813C10.5198 2.76413 9.54778 2.62213 8.89578 2.84213C8.26978 3.05213 7.74978 3.65613 7.74978 4.71513C7.74978 5.18213 8.03478 5.77013 8.60878 6.43613C9.16478 7.08113 9.90078 7.69313 10.5918 8.19613C11.4348 8.81113 11.6348 8.92613 11.9998 8.92613C12.3648 8.92613 12.5648 8.81113 13.4088 8.19613C14.0988 7.69313 14.8348 7.08113 15.3908 6.43613C15.9658 5.77013 16.2508 5.18213 16.2508 4.71513C16.2508 3.65513 15.7298 3.05213 15.1048 2.84213ZM8.68378 14.4481C10.5498 14.0861 12.5468 14.1681 14.1638 15.1321C14.3898 15.2671 14.6038 15.4361 14.7888 15.6441C15.1648 16.0661 15.3588 16.5911 15.3678 17.1171C15.5588 16.9941 15.7508 16.8571 15.9448 16.7101L17.7528 15.3451C18.2055 15.0123 18.7528 14.8327 19.3148 14.8327C19.8767 14.8327 20.424 15.0123 20.8768 15.3451C21.7118 15.9751 22.0458 17.1081 21.4468 18.0671C21.0218 18.7491 20.3818 19.6921 19.7298 20.2961C19.0698 20.9061 18.1328 21.4191 17.4238 21.7621C16.5618 22.1781 15.6318 22.4071 14.7268 22.5541C12.8768 22.8541 10.9528 22.8071 9.12478 22.4311C8.1821 22.2371 7.22221 22.139 6.25978 22.1381H3.99978C3.80087 22.1381 3.6101 22.0591 3.46945 21.9185C3.3288 21.7778 3.24978 21.587 3.24978 21.3881C3.24978 21.1892 3.3288 20.9985 3.46945 20.8578C3.6101 20.7172 3.80087 20.6381 3.99978 20.6381H6.25978C7.32178 20.6381 8.39478 20.7481 9.42778 20.9621C11.0939 21.304 12.8082 21.3416 14.4878 21.0731C15.3158 20.9391 16.0898 20.7401 16.7718 20.4111C17.4548 20.0811 18.2228 19.6471 18.7098 19.1951C19.2028 18.7391 19.7538 17.9481 20.1748 17.2741C20.3018 17.0701 20.2838 16.7761 19.9728 16.5411C19.7803 16.4051 19.5504 16.3321 19.3148 16.3321C19.0791 16.3321 18.8492 16.4051 18.6568 16.5411L16.8498 17.9071C16.1278 18.4521 15.2398 19.0351 14.1388 19.2101C14.0235 19.2288 13.9078 19.2451 13.7918 19.2591C13.0911 19.34 12.3839 19.3467 11.6818 19.2791C11.582 19.2722 11.4846 19.2454 11.3953 19.2003C11.306 19.1552 11.2266 19.0927 11.1619 19.0165C11.0971 18.9402 11.0482 18.8518 11.0182 18.7564C10.9881 18.661 10.9774 18.5605 10.9868 18.4609C10.9961 18.3613 11.0253 18.2646 11.0726 18.1764C11.1198 18.0883 11.1843 18.0104 11.2621 17.9476C11.3399 17.8847 11.4295 17.838 11.5256 17.8103C11.6217 17.7826 11.7224 17.7744 11.8218 17.7861C12.4498 17.8451 13.0118 17.8321 13.4898 17.7831L13.5198 17.7801C13.6131 17.7222 13.6924 17.6443 13.7519 17.5521C13.8115 17.4598 13.8498 17.3555 13.8642 17.2466C13.8785 17.1378 13.8685 17.0271 13.8349 16.9225C13.8013 16.818 13.7449 16.7222 13.6698 16.6421C13.5901 16.5544 13.4973 16.4795 13.3948 16.4201C12.2138 15.7151 10.6358 15.5981 8.96878 15.9201C7.34053 16.2477 5.79695 16.9063 4.43378 17.8551C4.35341 17.9121 4.2626 17.9527 4.16654 17.9746C4.07048 17.9965 3.97104 17.9993 3.87391 17.9828C3.77678 17.9662 3.68386 17.9307 3.60045 17.8783C3.51704 17.8259 3.44477 17.7575 3.38778 17.6771C3.33078 17.5968 3.29018 17.506 3.26828 17.4099C3.24638 17.3138 3.24362 17.2144 3.26014 17.1173C3.27667 17.0201 3.31217 16.9272 3.36461 16.8438C3.41705 16.7604 3.48541 16.6881 3.56578 16.6311C5.10343 15.5591 6.84576 14.8159 8.68378 14.4481Z" fill="black"/>
</svg>
