<svg width="24" height="24" viewBox="0 0 24 24" fill="none" xmlns="http://www.w3.org/2000/svg">
<path fill-rule="evenodd" clip-rule="evenodd" d="M11.164 1.25H12.836C13.567 1.25 14.182 1.25 14.681 1.31C15.21 1.375 15.693 1.515 16.116 1.855C16.54 2.195 16.782 2.635 16.959 3.138C17.127 3.612 17.259 4.212 17.419 4.926L17.656 5.994C18.4761 6.76448 19.1295 7.69501 19.5757 8.72807C20.0219 9.76112 20.2514 10.8747 20.25 12C20.2514 13.1253 20.0219 14.2389 19.5757 15.2719C19.1295 16.305 18.4761 17.2355 17.656 18.006L17.418 19.074C17.26 19.788 17.127 20.388 16.959 20.862C16.782 21.364 16.54 21.805 16.116 22.145C15.693 22.485 15.21 22.625 14.681 22.69C14.182 22.75 13.567 22.75 12.836 22.75H11.164C10.433 22.75 9.81801 22.75 9.31901 22.69C8.79001 22.625 8.30701 22.485 7.88401 22.145C7.46001 21.805 7.21801 21.365 7.04101 20.862C6.87301 20.388 6.74101 19.788 6.58101 19.074L6.34401 18.006C5.52387 17.2355 4.87051 16.305 4.42433 15.2719C3.97815 14.2389 3.74865 13.1253 3.75001 12C3.75001 9.633 4.74701 7.498 6.34401 5.994L6.58201 4.926C6.74001 4.212 6.87301 3.612 7.04101 3.138C7.21801 2.636 7.46001 2.195 7.88401 1.855C8.30701 1.515 8.79001 1.375 9.31901 1.31C9.81801 1.25 10.433 1.25 11.164 1.25ZM8.17201 4.69C9.3528 4.07061 10.6666 3.74799 12 3.75C13.382 3.75 14.684 4.09 15.828 4.69C15.7528 4.33448 15.6583 3.98329 15.545 3.638C15.418 3.279 15.302 3.125 15.178 3.025C15.053 2.925 14.878 2.845 14.5 2.8C14.102 2.751 13.579 2.75 12.791 2.75H11.21C10.422 2.75 9.89801 2.751 9.50101 2.8C9.12401 2.845 8.94801 2.925 8.82301 3.025C8.69901 3.125 8.58301 3.279 8.45601 3.638C8.36101 3.906 8.27601 4.242 8.17301 4.69M8.17301 19.31C8.27601 19.758 8.36101 20.094 8.45601 20.362C8.58301 20.721 8.69901 20.875 8.82301 20.975C8.94801 21.075 9.12301 21.155 9.50101 21.201C9.89801 21.249 10.422 21.25 11.21 21.25H12.792C13.58 21.25 14.103 21.249 14.502 21.2C14.878 21.155 15.054 21.075 15.179 20.975C15.303 20.875 15.419 20.721 15.546 20.362C15.641 20.094 15.726 19.758 15.829 19.31C14.685 19.91 13.383 20.25 12.001 20.25C10.6676 20.252 9.3538 19.9294 8.17301 19.31ZM12 5.25C10.2098 5.25 8.49291 5.96116 7.22704 7.22703C5.96116 8.4929 5.25001 10.2098 5.25001 12C5.25001 13.7902 5.96116 15.5071 7.22704 16.773C8.49291 18.0388 10.2098 18.75 12 18.75C13.7902 18.75 15.5071 18.0388 16.773 16.773C18.0388 15.5071 18.75 13.7902 18.75 12C18.75 10.2098 18.0388 8.4929 16.773 7.22703C15.5071 5.96116 13.7902 5.25 12 5.25ZM12 8.173C12.1989 8.173 12.3897 8.25202 12.5303 8.39267C12.671 8.53332 12.75 8.72409 12.75 8.923V11.681L14.52 13.383C14.5944 13.4504 14.6544 13.5321 14.6966 13.6232C14.7388 13.7143 14.7623 13.8129 14.7657 13.9132C14.7691 14.0135 14.7523 14.1135 14.7163 14.2072C14.6804 14.3009 14.626 14.3864 14.5564 14.4587C14.4867 14.531 14.4033 14.5886 14.311 14.6281C14.2187 14.6676 14.1195 14.6881 14.0191 14.6885C13.9187 14.6889 13.8193 14.6691 13.7267 14.6304C13.6341 14.5917 13.5502 14.5347 13.48 14.463L11.48 12.541C11.4072 12.471 11.3493 12.3869 11.3098 12.294C11.2703 12.201 11.2499 12.101 11.25 12V8.923C11.25 8.72409 11.329 8.53332 11.4697 8.39267C11.6103 8.25202 11.8011 8.173 12 8.173Z" fill="black"/>
</svg>
