<svg width="24" height="24" viewBox="0 0 24 24" fill="none" xmlns="http://www.w3.org/2000/svg">
<path d="M16 9C16 9.26522 15.8946 9.51957 15.7071 9.70711C15.5196 9.89464 15.2652 10 15 10C14.7348 10 14.4804 9.89464 14.2929 9.70711C14.1054 9.51957 14 9.26522 14 9C14 8.73478 14.1054 8.48043 14.2929 8.29289C14.4804 8.10536 14.7348 8 15 8C15.2652 8 15.5196 8.10536 15.7071 8.29289C15.8946 8.48043 16 8.73478 16 9ZM10 9C10 9.26522 9.89464 9.51957 9.70711 9.70711C9.51957 9.89464 9.26522 10 9 10C8.73478 10 8.48043 9.89464 8.29289 9.70711C8.10536 9.51957 8 9.26522 8 9C8 8.73478 8.10536 8.48043 8.29289 8.29289C8.48043 8.10536 8.73478 8 9 8C9.26522 8 9.51957 8.10536 9.70711 8.29289C9.89464 8.48043 10 8.73478 10 9Z" fill="black"/>
<path fill-rule="evenodd" clip-rule="evenodd" d="M11.9999 2.75C11.4032 2.75 10.8309 2.98705 10.4089 3.40901C9.98698 3.83097 9.74993 4.40326 9.74993 5V5.254C10.1679 5.25 10.6179 5.25 11.1049 5.25H12.8949C13.3819 5.25 13.8329 5.25 14.2499 5.254V5C14.2499 4.40326 14.0129 3.83097 13.5909 3.40901C13.169 2.98705 12.5967 2.75 11.9999 2.75ZM15.7499 5.307V5C15.7499 4.00544 15.3548 3.05161 14.6516 2.34835C13.9483 1.64509 12.9945 1.25 11.9999 1.25C11.0054 1.25 10.0515 1.64509 9.34828 2.34835C8.64502 3.05161 8.24993 4.00544 8.24993 5V5.307C8.11493 5.317 7.98493 5.328 7.85893 5.342C6.98093 5.437 6.24593 5.635 5.59393 6.082C5.36955 6.23565 5.15877 6.40828 4.96393 6.598C4.39793 7.15 4.05893 7.832 3.79393 8.674C3.53693 9.493 3.32893 10.533 3.06693 11.84L3.04793 11.935C2.67193 13.818 2.37493 15.302 2.28993 16.484C2.20193 17.692 2.32393 18.707 2.89593 19.588C3.08693 19.882 3.30993 20.153 3.55993 20.398C4.31193 21.132 5.28393 21.45 6.48493 21.602C7.66093 21.75 9.17493 21.75 11.0949 21.75H12.9049C14.8259 21.75 16.3389 21.75 17.5149 21.602C18.7159 21.45 19.6889 21.132 20.4399 20.398C20.6904 20.1533 20.9131 19.8817 21.1039 19.588C21.6759 18.708 21.7979 17.692 21.7109 16.484C21.6249 15.302 21.3289 13.818 20.9509 11.935L20.9329 11.84C20.6719 10.533 20.4629 9.493 20.2059 8.674C19.9409 7.832 19.6019 7.15 19.0359 6.598C18.8411 6.40827 18.6303 6.23564 18.4059 6.082C17.7539 5.635 17.0189 5.437 16.1409 5.342C16.0111 5.3281 15.8811 5.31643 15.7509 5.307M8.01993 6.833C7.27293 6.913 6.81193 7.066 6.44193 7.319C6.28839 7.42443 6.14419 7.54287 6.01093 7.673C5.68993 7.986 5.45093 8.408 5.22493 9.124C4.99493 9.857 4.80093 10.817 4.52993 12.176C4.13993 14.124 3.86293 15.516 3.78593 16.592C3.70893 17.654 3.83793 18.285 4.15393 18.771C4.28393 18.971 4.43693 19.158 4.60793 19.325C5.02293 19.73 5.61593 19.98 6.67293 20.114C7.74293 20.249 9.16293 20.25 11.1489 20.25H12.8519C14.8379 20.25 16.2559 20.249 17.3269 20.114C18.3839 19.98 18.9769 19.73 19.3919 19.325C19.5632 19.1576 19.7155 18.9718 19.8459 18.771C20.1619 18.285 20.2909 17.654 20.2149 16.591C20.1369 15.515 19.8599 14.124 19.4709 12.176C19.1989 10.817 19.0059 9.856 18.7749 9.124C18.5499 8.408 18.3099 7.986 17.9889 7.673C17.856 7.5429 17.7121 7.42446 17.5589 7.319C17.1889 7.066 16.7269 6.914 15.9799 6.833C15.2169 6.751 14.2369 6.75 12.8509 6.75H11.1499C9.76393 6.75 8.78393 6.751 8.01993 6.833Z" fill="black"/>
</svg>
