<svg width="24" height="24" viewBox="0 0 24 24" fill="none" xmlns="http://www.w3.org/2000/svg">
<path fill-rule="evenodd" clip-rule="evenodd" d="M6.08803 1.62822C6.40798 1.44247 6.76155 1.32191 7.12833 1.27351C7.49511 1.22511 7.86785 1.24982 8.22503 1.34622L8.71503 1.47522C9.29151 1.62895 9.78846 1.99514 10.106 2.50022C11.014 3.93322 12.986 3.93322 13.894 2.50022C14.214 1.99622 14.707 1.62622 15.284 1.47422L15.774 1.34422C16.1314 1.24783 16.5044 1.22321 16.8714 1.27179C17.2383 1.32036 17.592 1.44117 17.912 1.62722C18.427 1.92922 19.133 2.36522 19.65 2.78022C19.802 2.90222 19.956 3.03622 20.108 3.17622L20.148 3.21422C20.582 3.61422 20.973 3.97622 21.246 4.32922C21.554 4.72822 21.753 5.16722 21.75 5.71922C21.747 6.29122 21.513 6.74322 21.182 7.14922C20.88 7.51922 20.448 7.90922 19.954 8.35422L19.729 8.55722C19.187 9.04622 19.094 9.15122 19.042 9.26922C18.988 9.39222 18.973 9.54522 18.973 10.2952V18.3112C18.973 18.9322 18.973 19.4732 18.91 19.9272C18.84 20.4232 18.69 20.8672 18.36 21.2792C17.734 22.0632 16.932 22.2092 15.98 22.3832L15.852 22.4062C14.5811 22.6372 13.2918 22.7524 12 22.7502C10.482 22.7502 9.18003 22.5972 8.14803 22.4072L8.02003 22.3842C7.06803 22.2102 6.26603 22.0642 5.64003 21.2802C5.31003 20.8672 5.16003 20.4242 5.09003 19.9282C5.02703 19.4742 5.02703 18.9332 5.02703 18.3122V10.2952C5.02703 9.54522 5.01203 9.39322 4.95803 9.27022C4.90603 9.15222 4.81303 9.04722 4.27103 8.55822L4.08603 8.39122C4.0727 8.37923 4.05936 8.36723 4.04603 8.35522C3.55203 7.91022 3.12003 7.52022 2.81803 7.15022C2.48803 6.74322 2.25303 6.29122 2.25003 5.72022C2.24703 5.16722 2.44603 4.72822 2.75403 4.32922C3.02703 3.97622 3.41803 3.61422 3.85203 3.21422L3.89203 3.17622C4.04403 3.03622 4.19803 2.90222 4.35003 2.78022C4.86703 2.36522 5.57303 1.92922 6.08803 1.62722M7.84403 2.79522C7.67757 2.74919 7.50361 2.73672 7.33228 2.75852C7.16095 2.78032 6.99567 2.83597 6.84603 2.92222C6.34003 3.21822 5.71403 3.60922 5.28803 3.95022C5.15827 4.05514 5.0322 4.16454 4.91003 4.27822C4.42303 4.72822 4.12803 5.00422 3.94103 5.24622C3.78203 5.45222 3.74903 5.57422 3.75003 5.71122C3.75003 5.82822 3.78303 5.95922 3.98003 6.20122C4.20003 6.47122 4.54503 6.78422 5.09003 7.27622L5.27603 7.44322L5.35903 7.51822C5.77003 7.88822 6.13503 8.21522 6.33203 8.66822C6.52803 9.11622 6.52803 9.61122 6.52703 10.1802V18.2642C6.52703 18.9462 6.52803 19.3812 6.57603 19.7192C6.61803 20.0242 6.69203 20.1932 6.81203 20.3432C7.05503 20.6472 7.28203 20.7222 8.42003 20.9312C9.37203 21.1062 10.583 21.2492 12 21.2492C13.417 21.2492 14.628 21.1062 15.58 20.9312C16.719 20.7212 16.945 20.6472 17.188 20.3432C17.308 20.1932 17.382 20.0242 17.424 19.7192C17.472 19.3812 17.474 18.9462 17.474 18.2642V10.1802C17.472 9.61022 17.472 9.11622 17.668 8.66822C17.866 8.21522 18.23 7.88822 18.641 7.51822L18.724 7.44322L18.909 7.27622C19.455 6.78422 19.799 6.47122 20.019 6.20122C20.217 5.95922 20.249 5.82822 20.25 5.71122C20.25 5.57422 20.218 5.45122 20.059 5.24622C19.872 5.00422 19.577 4.72822 19.089 4.27822C18.9672 4.16456 18.8415 4.05516 18.712 3.95022C18.286 3.60922 17.66 3.21822 17.154 2.92222C17.0044 2.83592 16.8391 2.78024 16.6678 2.75844C16.4965 2.73663 16.3225 2.74914 16.156 2.79522L15.666 2.92522C15.456 2.98289 15.2756 3.11794 15.161 3.30322C14.8298 3.84438 14.3653 4.29144 13.8118 4.60161C13.2583 4.91178 12.6345 5.07467 12 5.07467C11.3656 5.07467 10.7417 4.91178 10.1883 4.60161C9.6348 4.29144 9.17022 3.84438 8.83903 3.30322C8.72469 3.11757 8.54424 2.98214 8.33403 2.92422L7.84403 2.79522Z" fill="black"/>
</svg>
