<svg width="24" height="24" viewBox="0 0 24 24" fill="none" xmlns="http://www.w3.org/2000/svg">
<path d="M11.9998 17.9998C16.1418 18.0338 19.5938 14.0798 19.5598 9.80376C19.5268 5.52976 16.1418 2.03376 11.9998 1.99976C7.85781 1.96576 4.52681 5.40376 4.55981 9.67976C4.59381 13.9548 7.85781 17.9648 11.9998 17.9998Z" stroke="black" stroke-width="1.5" stroke-linecap="round"/>
<path d="M15.4999 9C15.4908 8.20717 15.1718 7.44938 14.6112 6.88873C14.0505 6.32808 13.2927 6.00909 12.4999 6M11.9999 20.35C12.3209 20.35 12.4819 20.35 12.5929 20.328C13.2469 20.2 13.6439 19.556 13.4509 18.938C13.4179 18.833 13.3419 18.696 13.1899 18.423M11.9999 20.35C11.6789 20.35 11.5179 20.35 11.4069 20.328C10.7529 20.2 10.3559 19.556 10.5489 18.938C10.5819 18.833 10.6579 18.696 10.8099 18.423M11.9999 20.35V22.5" stroke="black" stroke-width="1.5" stroke-linecap="round"/>
</svg>
