<svg width="24" height="24" viewBox="0 0 24 24" fill="none" xmlns="http://www.w3.org/2000/svg">
<path fill-rule="evenodd" clip-rule="evenodd" d="M15.0299 1.46983C15.1703 1.61045 15.2492 1.80108 15.2492 1.99983C15.2492 2.19858 15.1703 2.3892 15.0299 2.52983C14.6149 2.94583 14.2399 3.38783 13.9099 3.84983L15.1169 5.05683C15.2493 5.199 15.3215 5.38705 15.318 5.58135C15.3146 5.77565 15.2359 5.96104 15.0985 6.09845C14.9611 6.23586 14.7757 6.31458 14.5814 6.318C14.3871 6.32143 14.199 6.24931 14.0569 6.11683L13.1089 5.16883C12.8989 5.58283 12.7199 6.00683 12.5739 6.43483L17.4529 11.3128C17.4888 11.3488 17.521 11.3883 17.5489 11.4308C17.962 11.2908 18.3653 11.123 18.7559 10.9288L15.7479 7.91983C15.6742 7.85117 15.6151 7.76837 15.5741 7.67637C15.5331 7.58437 15.5111 7.48505 15.5093 7.38435C15.5075 7.28365 15.526 7.18362 15.5637 7.09023C15.6015 6.99684 15.6576 6.91201 15.7288 6.84079C15.8001 6.76957 15.8849 6.71343 15.9783 6.67571C16.0717 6.63798 16.1717 6.61946 16.2724 6.62124C16.3731 6.62301 16.4724 6.64506 16.5644 6.68605C16.6564 6.72704 16.7392 6.78614 16.8079 6.85983L20.0839 10.1348C20.5699 9.79383 21.0339 9.40483 21.4699 8.96883C21.5385 8.89514 21.6213 8.83604 21.7133 8.79505C21.8053 8.75406 21.9046 8.73201 22.0053 8.73024C22.1061 8.72846 22.2061 8.74698 22.2995 8.78471C22.3929 8.82243 22.4777 8.87857 22.5489 8.94979C22.6201 9.02101 22.6763 9.10584 22.714 9.19923C22.7517 9.29262 22.7702 9.39265 22.7685 9.49335C22.7667 9.59405 22.7446 9.69337 22.7037 9.78537C22.6627 9.87737 22.6036 9.96017 22.5299 10.0288C19.9079 12.6518 16.2659 13.8828 12.9739 13.2418C13.7239 16.4168 12.5739 19.9858 10.0299 22.5288C9.96121 22.6025 9.87841 22.6616 9.78641 22.7026C9.69441 22.7436 9.5951 22.7656 9.49439 22.7674C9.39369 22.7692 9.29366 22.7507 9.20027 22.713C9.10688 22.6752 9.02205 22.6191 8.95083 22.5479C8.87961 22.4766 8.82347 22.3918 8.78575 22.2984C8.74803 22.205 8.7295 22.105 8.73128 22.0043C8.73305 21.9036 8.7551 21.8043 8.79609 21.7123C8.83708 21.6203 8.89618 21.5375 8.96987 21.4688C9.39823 21.0407 9.78589 20.5737 10.1279 20.0738L8.77387 18.7208C8.70227 18.6516 8.64517 18.5688 8.60591 18.4773C8.56665 18.3858 8.546 18.2874 8.54519 18.1878C8.54437 18.0882 8.56339 17.9894 8.60115 17.8973C8.6389 17.8051 8.69463 17.7214 8.76508 17.651C8.83553 17.5806 8.9193 17.525 9.01149 17.4873C9.10368 17.4497 9.20245 17.4307 9.30203 17.4316C9.40161 17.4326 9.50002 17.4533 9.5915 17.4926C9.68299 17.532 9.76572 17.5892 9.83487 17.6608L10.8979 18.7228C11.0839 18.3198 11.2379 17.9088 11.3609 17.4948C11.3442 17.4809 11.3282 17.4662 11.3129 17.4508L6.49987 12.6398C6.05987 12.7698 5.62487 12.9358 5.19787 13.1388L8.02887 15.9688C8.1697 16.1094 8.24892 16.3001 8.24911 16.4991C8.2493 16.6981 8.17043 16.889 8.02987 17.0298C7.8893 17.1707 7.69855 17.2499 7.49958 17.2501C7.3006 17.2503 7.1097 17.1714 6.96887 17.0308L3.85687 13.9178C3.38275 14.2492 2.93841 14.6213 2.52887 15.0298C2.3867 15.1623 2.19865 15.2344 2.00435 15.231C1.81005 15.2276 1.62466 15.1489 1.48725 15.0114C1.34984 14.874 1.27112 14.6887 1.26769 14.4944C1.26427 14.3 1.33639 14.112 1.46887 13.9698C4.01187 11.4258 7.58087 10.2768 10.7559 11.0258C10.1159 7.73383 11.3459 4.09183 13.9689 1.46983C14.1095 1.32938 14.3001 1.25049 14.4989 1.25049C14.6976 1.25049 14.8892 1.32938 15.0299 1.46983ZM15.8489 11.8318L12.1689 8.14983C12.0099 9.31983 12.0959 10.4838 12.4399 11.5618C13.5179 11.9058 14.6819 11.9918 15.8519 11.8328M11.3319 12.9548C11.6309 13.8218 11.7449 14.7548 11.6849 15.7018L8.30087 12.3178C9.24787 12.2578 10.1809 12.3718 11.0479 12.6708L11.2599 12.7428L11.3319 12.9548Z" fill="black"/>
</svg>
