<svg width="24" height="24" viewBox="0 0 24 24" fill="none" xmlns="http://www.w3.org/2000/svg">
<path fill-rule="evenodd" clip-rule="evenodd" d="M8.945 2.25H15.055C16.422 2.25 17.525 2.25 18.392 2.367C19.292 2.487 20.05 2.747 20.652 3.348C21.254 3.95 21.512 4.708 21.634 5.608C21.75 6.475 21.75 7.578 21.75 8.945V14.052C21.75 14.951 21.75 15.7 21.67 16.294C21.586 16.922 21.4 17.489 20.944 17.944C20.489 18.4 19.922 18.586 19.294 18.67C18.7 18.75 17.951 18.75 17.052 18.75H6.948C6.05 18.75 5.3 18.75 4.706 18.67C4.078 18.586 3.511 18.4 3.056 17.944C2.6 17.489 2.414 16.922 2.33 16.294C2.25 15.7 2.25 14.95 2.25 14.052V8.945C2.25 7.578 2.25 6.475 2.367 5.608C2.487 4.708 2.747 3.95 3.348 3.348C3.95 2.746 4.708 2.488 5.608 2.367C6.475 2.25 7.578 2.25 8.945 2.25ZM5.808 3.853C5.074 3.952 4.686 4.133 4.409 4.409C4.132 4.686 3.952 5.074 3.853 5.809C3.752 6.562 3.75 7.564 3.75 9V14C3.75 14.964 3.752 15.612 3.817 16.095C3.879 16.556 3.986 16.754 4.117 16.884C4.247 17.014 4.444 17.121 4.905 17.184C5.388 17.248 6.036 17.25 7 17.25H17C17.964 17.25 18.612 17.248 19.095 17.183C19.556 17.121 19.754 17.014 19.884 16.883C20.014 16.753 20.121 16.556 20.184 16.095C20.248 15.612 20.25 14.964 20.25 14V9C20.25 7.565 20.248 6.563 20.147 5.808C20.048 5.074 19.867 4.686 19.591 4.409C19.314 4.132 18.926 3.952 18.191 3.853C17.436 3.752 16.435 3.75 15 3.75H9C7.565 3.75 6.563 3.752 5.808 3.853ZM8.25 15C8.25 14.8011 8.32902 14.6103 8.46967 14.4697C8.61032 14.329 8.80109 14.25 9 14.25H15C15.1989 14.25 15.3897 14.329 15.5303 14.4697C15.671 14.6103 15.75 14.8011 15.75 15C15.75 15.1989 15.671 15.3897 15.5303 15.5303C15.3897 15.671 15.1989 15.75 15 15.75H9C8.80109 15.75 8.61032 15.671 8.46967 15.5303C8.32902 15.3897 8.25 15.1989 8.25 15ZM1.25 21C1.25 20.8011 1.32902 20.6103 1.46967 20.4697C1.61032 20.329 1.80109 20.25 2 20.25H22C22.1989 20.25 22.3897 20.329 22.5303 20.4697C22.671 20.6103 22.75 20.8011 22.75 21C22.75 21.1989 22.671 21.3897 22.5303 21.5303C22.3897 21.671 22.1989 21.75 22 21.75H2C1.80109 21.75 1.61032 21.671 1.46967 21.5303C1.32902 21.3897 1.25 21.1989 1.25 21Z" fill="black"/>
</svg>
