<svg width="24" height="24" viewBox="0 0 24 24" fill="none" xmlns="http://www.w3.org/2000/svg">
<path fill-rule="evenodd" clip-rule="evenodd" d="M12 4.74978C10.5891 4.74977 9.20882 5.16144 8.02843 5.93434C6.84803 6.70724 5.91881 7.80776 5.35468 9.101C4.79054 10.3942 4.61602 11.824 4.8525 13.2149C5.08898 14.6059 5.72619 15.8976 6.68601 16.9318C8.62801 16.4838 11.022 15.5728 13.478 14.2648C15.772 13.0418 17.708 11.6928 19.083 10.4428C18.7276 8.8289 17.8317 7.3848 16.5436 6.34951C15.2555 5.31422 13.6526 4.74984 12 4.74978ZM19.245 12.2808C17.863 13.4068 16.133 14.5498 14.183 15.5878C12.063 16.7178 9.95901 17.5778 8.10001 18.1128C9.17583 18.7991 10.4137 19.1894 11.6887 19.2441C12.9636 19.2988 14.2304 19.016 15.3611 18.4243C16.4917 17.8326 17.4461 16.9529 18.1279 15.8742C18.8097 14.7955 19.1947 13.5559 19.244 12.2808M6.21001 18.5608C7.53797 19.733 9.19045 20.4747 10.949 20.6876C12.7075 20.9005 14.4892 20.5747 16.0585 19.7532C17.6279 18.9317 18.911 17.6533 19.7381 16.0869C20.5653 14.5206 20.8975 12.74 20.691 10.9808L20.781 10.8908C21.535 10.1208 22.123 9.35078 22.453 8.62278C22.777 7.90678 22.911 7.07878 22.465 6.36478C22.045 5.69478 21.28 5.40478 20.509 5.30078C19.738 5.19678 18.807 5.25678 17.789 5.43878C16.4611 4.26651 14.8086 3.5249 13.0501 3.31198C11.2916 3.09907 9.50984 3.42488 7.94049 4.24635C6.37113 5.06782 5.08806 6.34626 4.2609 7.91262C3.43375 9.47899 3.10147 11.2595 3.30801 13.0188C2.55001 13.7798 1.95401 14.5388 1.60501 15.2548C1.23901 16.0048 1.06501 16.8818 1.53501 17.6348C1.96801 18.3258 2.76701 18.6138 3.56701 18.7088C4.32101 18.7988 5.22401 18.7378 6.21001 18.5608ZM4.97501 17.2178C4.42845 16.4832 4.00089 15.6673 3.70801 14.7998C3.36401 15.2098 3.11301 15.5848 2.95201 15.9138C2.67501 16.4808 2.74401 16.7388 2.80701 16.8388C2.87901 16.9548 3.11201 17.1438 3.74401 17.2188C4.08701 17.2598 4.49901 17.2608 4.97501 17.2178ZM19.025 6.78178C19.4522 6.73649 19.8831 6.73817 20.31 6.78678C20.904 6.86678 21.123 7.04878 21.193 7.16078C21.253 7.25578 21.319 7.49078 21.086 8.00478C20.93 8.34878 20.666 8.75278 20.292 9.19978C19.9992 8.33229 19.5716 7.5163 19.025 6.78178Z" fill="black"/>
</svg>
