<svg width="24" height="24" viewBox="0 0 24 24" fill="none" xmlns="http://www.w3.org/2000/svg">
<path fill-rule="evenodd" clip-rule="evenodd" d="M17.861 3.16321L18.021 3.21721L19.223 3.61721C19.686 3.77221 20.093 3.90721 20.414 4.05721C20.762 4.21921 21.081 4.42721 21.325 4.76621C21.569 5.10421 21.666 5.47321 21.71 5.85421C21.75 6.20721 21.75 6.63521 21.75 7.12421V15.3362C21.75 16.0342 21.75 16.6232 21.696 17.0892C21.64 17.5732 21.514 18.0512 21.161 18.4372C20.952 18.666 20.6981 18.8492 20.415 18.9752C19.937 19.1872 19.444 19.1552 18.967 19.0562C18.507 18.9602 17.949 18.7742 17.287 18.5532L17.244 18.5392C16.124 18.1652 15.739 18.0492 15.367 18.0622C15.2184 18.0673 15.0707 18.087 14.926 18.1212C14.563 18.2062 14.223 18.4202 13.24 19.0752L11.858 19.9972L11.718 20.0902C10.656 20.7992 9.918 21.2912 9.054 21.4072C8.191 21.5232 7.349 21.2422 6.139 20.8372L5.979 20.7842L4.777 20.3842C4.314 20.2292 3.907 20.0942 3.586 19.9442C3.238 19.7822 2.919 19.5742 2.675 19.2342C2.431 18.8962 2.334 18.5282 2.29 18.1462C2.25 17.7932 2.25 17.3662 2.25 16.8772V8.66521C2.25 7.96621 2.25 7.37721 2.304 6.91221C2.36 6.42821 2.486 5.95021 2.839 5.56421C3.04797 5.33543 3.30194 5.15227 3.585 5.02621C4.063 4.81321 4.557 4.84521 5.033 4.94521C5.493 5.04021 6.051 5.22721 6.713 5.44821L6.756 5.46221C7.876 5.83521 8.261 5.95221 8.634 5.93921C8.78225 5.9341 8.92964 5.91434 9.074 5.88021C9.437 5.79421 9.777 5.58021 10.76 4.92621L12.142 4.00421L12.282 3.91021C13.344 3.20221 14.082 2.71021 14.945 2.59421C15.809 2.47821 16.651 2.75821 17.861 3.16321ZM15.75 4.10721V16.5802C16.286 16.6382 16.85 16.8262 17.593 17.0742L17.718 17.1162C18.435 17.3552 18.91 17.5122 19.273 17.5882C19.629 17.6622 19.75 17.6282 19.805 17.6042C19.8994 17.5623 19.9842 17.5014 20.054 17.4252C20.094 17.3812 20.164 17.2762 20.206 16.9152C20.249 16.5472 20.25 16.0462 20.25 15.2912V7.16321C20.25 6.62321 20.249 6.28321 20.22 6.02521C20.192 5.78621 20.148 5.69721 20.108 5.64321C20.069 5.58921 19.999 5.51821 19.782 5.41721C19.546 5.30721 19.222 5.19921 18.712 5.02821L17.547 4.64021C16.66 4.34421 16.134 4.17721 15.75 4.10721ZM14.25 16.7602V4.43421C13.939 4.61421 13.54 4.87521 12.974 5.25221L11.592 6.17421L11.482 6.24721C10.794 6.70721 10.281 7.04921 9.75 7.24121V19.5672C10.061 19.3872 10.46 19.1252 11.026 18.7482L12.408 17.8272L12.518 17.7542C13.206 17.2942 13.719 16.9522 14.25 16.7602ZM8.25 19.8952V7.42021C7.714 7.36221 7.15 7.17421 6.407 6.92621L6.282 6.88421C5.565 6.64521 5.09 6.48821 4.726 6.41221C4.371 6.33821 4.25 6.37121 4.196 6.39521C4.10111 6.43727 4.01598 6.49856 3.946 6.57521C3.906 6.61821 3.836 6.72321 3.794 7.08421C3.751 7.45221 3.75 7.95421 3.75 8.70921V16.8372C3.75 17.3772 3.751 17.7172 3.78 17.9752C3.808 18.2142 3.852 18.3022 3.892 18.3572C3.931 18.4112 4.001 18.4822 4.218 18.5832C4.454 18.6932 4.778 18.8012 5.288 18.9722L6.453 19.3602C7.34 19.6552 7.865 19.8232 8.25 19.8942" fill="black"/>
</svg>
