<svg width="24" height="24" viewBox="0 0 24 24" fill="none" xmlns="http://www.w3.org/2000/svg">
<path fill-rule="evenodd" clip-rule="evenodd" d="M9.94389 1.25H14.0559C15.8939 1.25 17.3499 1.25 18.4889 1.403C19.6609 1.561 20.6099 1.893 21.3589 2.641C22.1069 3.39 22.4389 4.339 22.5969 5.511C22.7499 6.651 22.7499 8.106 22.7499 9.944V13.056C22.7499 13.718 22.7499 14.33 22.7429 14.896C22.7536 14.9724 22.7526 15.0499 22.7399 15.126C22.7239 16.033 22.6869 16.816 22.5969 17.489C22.4389 18.661 22.1069 19.61 21.3589 20.359C20.8949 20.823 20.3539 21.127 19.7299 21.329C19.7429 21.383 19.7499 21.441 19.7499 21.5V22C19.7499 22.1989 19.6709 22.3897 19.5302 22.5303C19.3896 22.671 19.1988 22.75 18.9999 22.75C18.801 22.75 18.6102 22.671 18.4696 22.5303C18.3289 22.3897 18.2499 22.1989 18.2499 22V21.626C17.1479 21.75 15.7679 21.75 14.0559 21.75H9.94389C8.23189 21.75 6.85189 21.75 5.74989 21.626V22C5.74989 22.1989 5.67087 22.3897 5.53022 22.5303C5.38956 22.671 5.1988 22.75 4.99989 22.75C4.80097 22.75 4.61021 22.671 4.46956 22.5303C4.3289 22.3897 4.24989 22.1989 4.24989 22V21.5C4.24989 21.44 4.25689 21.383 4.26989 21.328C3.64589 21.127 3.10489 20.823 2.64089 20.358C1.89289 19.61 1.56089 18.661 1.40289 17.489C1.31289 16.816 1.27589 16.033 1.25989 15.126C1.24715 15.0499 1.24613 14.9724 1.25689 14.896C1.24989 14.33 1.24989 13.718 1.24989 13.056V9.944C1.24989 9.282 1.24989 8.67 1.25689 8.104C1.24615 8.02763 1.24716 7.95007 1.25989 7.874C1.27589 6.967 1.31289 6.184 1.40289 5.511C1.56089 4.339 1.89289 3.39 2.64089 2.641C3.38989 1.893 4.33889 1.561 5.51089 1.403C6.65089 1.25 8.10589 1.25 9.94389 1.25ZM2.75189 8.75C2.74989 9.138 2.74989 9.554 2.74989 10V13C2.74989 13.446 2.74989 13.862 2.75189 14.25H11.2499V8.75H2.75189ZM11.2499 7.25H2.77589C2.79589 6.663 2.82989 6.156 2.88989 5.71C3.02489 4.705 3.27889 4.125 3.70189 3.702C4.12489 3.279 4.70489 3.025 5.71089 2.89C6.73889 2.752 8.09289 2.75 9.99989 2.75H11.2499V7.25ZM12.7499 14.25H21.2479C21.2499 13.862 21.2499 13.446 21.2499 13V10C21.2499 8.093 21.2479 6.739 21.1099 5.71C20.9749 4.705 20.7209 4.125 20.2979 3.702C19.8749 3.279 19.2949 3.025 18.2889 2.89C17.2619 2.752 15.9069 2.75 13.9999 2.75H12.7499V14.25ZM21.2239 15.75H12.7499V20.25H13.9999C15.9069 20.25 17.2619 20.248 18.2899 20.11C19.2949 19.975 19.8749 19.721 20.2979 19.298C20.7209 18.875 20.9749 18.295 21.1099 17.289C21.1699 16.844 21.2039 16.337 21.2239 15.75ZM11.2499 20.25V15.75H2.77589C2.79589 16.337 2.82989 16.844 2.88989 17.29C3.02489 18.295 3.27889 18.875 3.70189 19.298C4.12489 19.721 4.70489 19.975 5.71089 20.11C6.73889 20.248 8.09289 20.25 9.99989 20.25H11.2499ZM14.9999 7.25C15.1988 7.25 15.3896 7.32902 15.5302 7.46967C15.6709 7.61032 15.7499 7.80109 15.7499 8V10C15.7499 10.1989 15.6709 10.3897 15.5302 10.5303C15.3896 10.671 15.1988 10.75 14.9999 10.75C14.801 10.75 14.6102 10.671 14.4696 10.5303C14.3289 10.3897 14.2499 10.1989 14.2499 10V8C14.2499 7.80109 14.3289 7.61032 14.4696 7.46967C14.6102 7.32902 14.801 7.25 14.9999 7.25ZM6.24989 18C6.24989 17.8011 6.3289 17.6103 6.46956 17.4697C6.61021 17.329 6.80097 17.25 6.99989 17.25H8.99989C9.1988 17.25 9.38956 17.329 9.53022 17.4697C9.67087 17.6103 9.74989 17.8011 9.74989 18C9.74989 18.1989 9.67087 18.3897 9.53022 18.5303C9.38956 18.671 9.1988 18.75 8.99989 18.75H6.99989C6.80097 18.75 6.61021 18.671 6.46956 18.5303C6.3289 18.3897 6.24989 18.1989 6.24989 18ZM14.2499 18C14.2499 17.8011 14.3289 17.6103 14.4696 17.4697C14.6102 17.329 14.801 17.25 14.9999 17.25H16.9999C17.1988 17.25 17.3896 17.329 17.5302 17.4697C17.6709 17.6103 17.7499 17.8011 17.7499 18C17.7499 18.1989 17.6709 18.3897 17.5302 18.5303C17.3896 18.671 17.1988 18.75 16.9999 18.75H14.9999C14.801 18.75 14.6102 18.671 14.4696 18.5303C14.3289 18.3897 14.2499 18.1989 14.2499 18Z" fill="black"/>
</svg>
